<?xml version="1.0" standalone="no"?><!DOCTYPE svg PUBLIC "-//W3C//DTD SVG 1.1//EN" "http://www.w3.org/Graphics/SVG/1.1/DTD/svg11.dtd" ><svg xmlns="http://www.w3.org/2000/svg"><metadata></metadata><defs><font id="5.10;Changzhou SinoType Technology Co., Ltd.;STLiBian-SC_W" horiz-adv-x="1000"><font-face font-family="STLiBian" font-weight="400" font-stretch="normal" units-per-em="1000" panose-1="2 1 6 0 4 1 1 1 1 1" ascent="750" descent="-250" x-height="1" bbox="10 -101 979 775" underline-thickness="20" underline-position="-92" unicode-range="U+0031-ff1a" /><missing-glyph horiz-adv-x="1000" d="M125 0 l0 750 l750 0 l0 -750 l-750 0 ZM187 62 l626 0 l0 626 l-626 0 l0 -626 Z" /><glyph glyph-name="one" unicode="1" d="M198 575 q0 -91 -40 -261 q-20 -87 -44.5 -165 q-24.5 -78 -53.5 -149 l-49 26 q51 124 81 258 q31 131 31 207 l0 64 l-27 0 l-75 -33 l-11 30 q84 24 176 69 l12 -14 l0 -32 Z" /><glyph glyph-name="two" unicode="2" d="M84 522 q133 78 202 78 q58 0 114 -56 q56 -56 56 -125 q0 -69 -97 -149 q-97 -80 -281 -154 l-6 -49 q106 21 177 21 q72 0 138 -9 l-25 -68 q-79 19 -146 19 q-32 0 -74 -4.5 q-42 -4.5 -95 -14.5 l-37 98 q75 34 138 73 q63 39 117 84 q108 89 133 170 l-47 76 l-48 32 q-4 5 -21.5 6 q-17.5 1 -44 -4.5 q-26.5 -5.5 -59.5 -19 q-33 -13.5 -67 -37.5 l-27 33 Z" /><glyph glyph-name="four" unicode="4" d="M427 170 l-33 -57 q-13 4 -24.5 4 q-11.5 0 -22.5 -1 q-30 -65 -59 -121 l-31 -8 q30 66 42 134 q-160 -3 -264 -25 q-25 47 -25 64 q0 24 52 147 q53 128 96 206 q43 81 75 102 q32 21 92 30 q-154 -178 -237 -418 l-56 -60 l25 -29 q38 11 103 20.5 q65 9.5 159 16.5 q11 57 17 105.5 q6 48.5 6 91.5 q0 13 -0.5 27 q-0.5 14 -1.5 29 l61 -49 q-1 -92 -41 -206 q7 1 67 -3 Z" /><glyph glyph-name="five" unicode="5" d="M522 611 l-38 -57 q-79 29 -167 29 q-28 0 -61 -3 q-32 -58 -60.5 -117.5 q-28.5 -59.5 -54.5 -122.5 q97 30 193 30 q37 0 54 -10 q18 -10 33 -37 q15 -27 15 -59 q0 -112 -98 -183 q-97 -70 -244 -70 q-38 0 -49 4 q-12 5 -23.5 21.5 q-11.5 16.5 -11.5 36.5 q0 16 11 16 q7 0 73 -20 q66 -20 80 -20 q13 0 28 5 q13 6 50 31 q19 13 33 24.5 q14 11.5 25 22.5 q21 21 33 42 q12 21 17 42 q5 25 5 51 q0 30 -18 45 q-18 15 -63 15 q-85 0 -173 -30 l-33 36 q79 128 125 282 q85 18 155 18 q73 0 164 -22 Z" /><glyph glyph-name="seven" unicode="7" d="M426 600 l-19 -59 q-105 -150 -172.5 -284.5 q-67.5 -134.5 -99.5 -256.5 l-65 23 q74 229 292 510 l-9 26 q-111 -28 -187 -28 q-37 0 -75.5 1.5 q-38.5 1.5 -80.5 5.5 l29 63 q91 -17 176.5 -17 q85.5 0 175.5 22 l35 -6 Z" /><glyph glyph-name=".notdef" unicode="&#x3002;" d="M355 17 q-69 -2 -114 0 q-45 2 -62 10 q-34 15 -34 84 q0 129 184 129 q15 -3 19.5 -12.5 q4.5 -9.5 3 -24.5 q-1.5 -15 -6 -35.5 q-4.5 -20.5 -6.5 -44 q-2 -23.5 0.5 -50.5 q2.5 -27 15.5 -56 ZM307 62 q-12 26 -10.5 48.5 q1.5 22.5 5 40 q3.5 17.5 4 28.5 q0.5 11 -13.5 14 q-105 0 -105 -75 q0 -22 5.5 -32.5 q5.5 -10.5 14.5 -16.5 q11 -5 36 -6.5 q25 -1.5 64 -0.5 Z" /><glyph glyph-name="quotedblleft" unicode="&#x201c;" d="M186 773 q0 -3 -8 -11 q-42 -34 -60.5 -71 q-18.5 -37 -18.5 -61 q0 -24 3 -35.5 q3 -11.5 3 -20.5 q0 -8 -7.5 -15.5 q-7.5 -7.5 -16.5 -7.5 q-9 0 -30 15 q-21 15 -21 39 q0 14 7 25 q4 6 13.5 19.5 q9.5 13.5 25.5 35.5 q32 45 65 67 q34 23 42 23 q3 0 3 -2 ZM295 771 q0 -3 -5 -11 q-18 -22 -29 -55 q-5 -15 -7 -27 q-2 -12 -2 -24 q0 -12 3.5 -25 q3.5 -13 10.5 -31 q3 -5 3 -12.5 q0 -7.5 -4 -14.5 q-4 -7 -12.5 -12 q-8.5 -5 -21.5 -5 q-40 0 -40 35 q0 35 20 81 q21 45 47 74 q27 30 35 30 q2 0 2 -3 Z" /><glyph glyph-name="quotedblright" unicode="&#x201d;" d="M294 718 q0 -22 -31 -71 q-15 -24 -32.5 -43 q-17.5 -19 -34 -31.5 q-16.5 -12.5 -31 -19 q-14.5 -6.5 -23.5 -6.5 q-3 0 -3 3 q0 3 8 10 q40 33 59.5 70 q19.5 37 19.5 61 q0 25 -3 37 q-3 12 -4 20 q0 9 8.5 16 q8.5 7 16.5 7 q9 0 29 -14 q21 -14 21 -39 ZM133 721 q0 -33 -17 -73 q-16 -37 -47 -70 q-29 -30 -37 -30 q-2 0 -2 3.5 q0 3.5 5 10.5 q17 21 28 54 q10 30 10 52 q0 20 -14 56 q-3 8 -3 17 q0 9 10 18 q10 10 30 10 q19 0 28 -13 q9 -13 9 -35 Z" /><glyph glyph-name=".notdef" unicode="&#xff01;" d="M233 192 q2 22 2 50 q0 119 -18 183 q-14 49 -14 70.5 q0 21.5 7.5 33.5 q7.5 12 33 12 q25.5 0 33 -12 q7.5 -12 7.5 -55.5 q0 -43.5 -11.5 -131 q-11.5 -87.5 -39.5 -150.5 ZM281 31 q-24 -30 -56 -30 q-18 0 -31.5 15 q-13.5 15 -13.5 32 q0 17 10 30 q10 13 22 13 q25 0 37 -21 q14 -28 32 -39 Z" /><glyph glyph-name=".notdef" unicode="&#xff0c;" d="M292 73 q0 -32 -17 -75.5 q-17 -43.5 -55 -71 q-38 -27.5 -48 -27.5 q-3 0 -3 3 q0 3 6 9 q27 25 41 48 q14 23 14 46 q0 23 -14 57 q-3 8 -3 18 q0 10 15.5 21.5 q15.5 11.5 27 11.5 q11.5 0 24 -8.5 q12.5 -8.5 12.5 -31.5 Z" /><glyph glyph-name=".notdef" unicode="&#xff1a;" d="M302 206 q-28 -2 -55.5 -2 q-27.5 0 -38 8.5 q-10.5 8.5 -10.5 32.5 q0 54 90 54 q11 0 11 -9.5 q0 -9.5 -3 -22 q-3 -12.5 -3 -26.5 q0 -14 9 -35 ZM302 4 q-50 -2 -71 0.5 q-21 2.5 -27 10.5 q-6 8 -6 28 q0 54 90 54 q11 0 11 -10 q0 -10 -3 -22 q-3 -12 -3 -26 q0 -14 9 -35 Z" /><glyph glyph-name=".notdef" unicode="&#x5965;" d="M934 201 q-14 -20 -24 -31 q-10 -11 -20.5 -14.5 q-10.5 -3.5 -22.5 0 q-12 3.5 -29 11.5 q-21 10 -57.5 18.5 q-36.5 8.5 -82 14.5 q-45.5 6 -96.5 10 q-51 4 -101 4 q-24 -70 -77.5 -115.5 q-53.5 -45.5 -144.5 -78.5 q-29 -11 -46 -8 q-17 3 -31 26 q-11 17 -4.5 24.5 q6.5 7.5 34.5 12.5 q37 6 72 18 q35 12 65 29 q30 17 53 40 q23 23 36 51 q-38 -1 -84 -5.5 q-46 -4.5 -92 -10.5 q-46 -6 -88.5 -13.5 q-42.5 -7.5 -73.5 -15.5 q-50 -13 -50 17 q1 32 55 38 q16 2 52 4.5 q36 2.5 83.5 4.5 q47.5 2 102 4 q54.5 2 106.5 4 q1 4 1.5 8 q0.5 4 1.5 8 q3 23 24 13 q15 -7 13 -27 q43 1 94 -0.5 q51 -1.5 103.5 -4 q52.5 -2.5 104.5 -6 q52 -3.5 97 -7.5 q23 -2 28 -8 q5 -6 -2 -15 ZM768 566 q-6 -26 -8 -57 q-2 -31 -2 -70 q0 -60 -4.5 -100.5 q-4.5 -40.5 -13.5 -57.5 q-7 -14 -16.5 -13.5 q-9.5 0.5 -14.5 11.5 q-5 10 -6 26 q-1 16 1 38 q3 37 5.5 81 q2.5 44 4.5 79 q3 85 -62 95 q-69 11 -144.5 11 q-75.5 0 -160.5 -16 q-17 -3 -28 -7.5 q-11 -4.5 -18 -11 q-7 -6.5 -10 -16.5 q-3 -10 -4 -24 q-1 -14 -1 -32 q0 -18 0 -38.5 q0 -20.5 0.5 -40.5 q0.5 -20 1.5 -37 q5 -73 -3 -100 q-5 -16 -14 -18 q-9 -2 -15 8 q-24 37 -16 105 q3 25 4 47.5 q1 22.5 0 45 q-1 22.5 -3 46 q-2 23.5 -6 51.5 q-1 8 1.5 18.5 q2.5 10.5 11.5 21.5 q8 11 16.5 14 q8.5 3 18.5 2 q17 -2 34.5 -1.5 q17.5 0.5 49.5 5.5 q13 2 29 3 q16 1 33 2 q16 29 22 69 q2 13 14.5 19 q12.5 6 32.5 -5 q15 -9 14 -24.5 q-1 -15.5 -11 -22.5 q-13 -8 -22 -16 q-9 -8 -20 -19 q37 1 78 0.5 q41 -0.5 77.5 -3 q36.5 -2.5 66.5 -6.5 q30 -4 47 -10 q27 -9 35.5 -23.5 q8.5 -14.5 4.5 -28.5 ZM525 328 q2 -32 -6 -42.5 q-8 -10.5 -16 -8.5 q-8 2 -14 14.5 q-6 12.5 -5 25.5 q1 29 1 49.5 q0 20.5 0 40.5 q-21 -27 -49 -52.5 q-28 -25.5 -62 -47.5 q-17 -11 -32 -10.5 q-15 0.5 -17 14.5 q-2 14 3.5 22 q5.5 8 22.5 13 q32 10 63.5 31.5 q31.5 21.5 51.5 45.5 q-26 -1 -51 -3.5 q-25 -2.5 -49 -7.5 q-20 -4 -31.5 -1 q-11.5 3 -12.5 15 q-1 10 15.5 15.5 q16.5 5.5 39.5 7.5 q14 1 43.5 1.5 q29.5 0.5 64.5 1.5 q0 17 -1 36 q-1 19 -2 42 q-2 18 4 26.5 q6 8.5 17 9.5 q11 1 16 -9 q5 -10 5 -24 l0 -80 q38 0 72 0.5 q34 0.5 52 -0.5 q20 -1 28 -7 q8 -6 4 -14 q-5 -11 -18.5 -13 q-13.5 -2 -35.5 0 q-23 2 -49 3.5 q-26 1.5 -53 1.5 q0 -31 0 -57 q0 -26 1 -39 ZM785 29 q-11 -16 -24 -17.5 q-13 -1.5 -30 6.5 q-26 12 -53.5 38.5 q-27.5 26.5 -50.5 55.5 q-12 16 -15.5 23 q-3.5 7 -2.5 18 q1 9 6.5 9.5 q5.5 0.5 23.5 -13.5 q22 -17 40 -29.5 q18 -12.5 34 -22 q16 -9.5 32 -16 q16 -6.5 34 -12.5 q30 -9 6 -40 ZM659 327 q-11 -14 -21 -15 q-10 -1 -25 11 q-16 14 -29 29 q-13 15 -20 26 q-11 14 -6.5 19 q4.5 5 16.5 -3 q16 -9 34 -18.5 q18 -9.5 37 -17.5 q27 -13 14 -31 ZM631 502 q-10 -5 -25.5 -12 q-15.5 -7 -32.5 -11 q-23 -5 -7 16 q6 7 14 15.5 q8 8.5 14 17.5 q5 9 15.5 11.5 q10.5 2.5 20.5 -4.5 q11 -8 12 -17 q1 -9 -11 -16 ZM442 492 q8 -10 2.5 -16 q-5.5 -6 -15.5 -2 q-14 4 -48 26 q-8 5 -10 13 q-2 8 9 17 q8 8 17 7.5 q9 -0.5 15 -8.5 q7 -6 16 -17.5 q9 -11.5 14 -19.5 Z" /><glyph glyph-name=".notdef" unicode="&#x7ed1;" d="M893 359 q3 -14 0.5 -31 q-2.5 -17 -9 -33.5 q-6.5 -16.5 -15.5 -30.5 q-9 -14 -18 -21 q-32 -25 -69.5 -33 q-37.5 -8 -80.5 -7 l0 -20 q-1 -9 -1.5 -26 q-0.5 -17 -1 -35.5 q-0.5 -18.5 -0.5 -36 q0 -17.5 0 -27.5 q-2 -42 -16 -42 q-18 -1 -24 9 q-6 10 -5 38 q1 20 2 46 q1 26 1.5 53.5 q0.5 27.5 0.5 54 q0 26.5 0 46.5 q0 19 0.5 54 q0.5 35 0.5 78.5 q0 43.5 0.5 93 q0.5 49.5 0.5 97.5 q-16 4 -24 9.5 q-8 5.5 -11 10.5 q-3 5 -2 10 q1 5 3 8 q11 14 24.5 18.5 q13.5 4.5 30.5 3.5 q24 -2 53 -5.5 q29 -3.5 55.5 -8 q26.5 -4.5 46 -8.5 q19.5 -4 23.5 -7 q16 -11 22.5 -21.5 q6.5 -10.5 6.5 -23.5 q0 -20 -3.5 -29.5 q-3.5 -9.5 -16.5 -26.5 q-14 -18 -23.5 -30 q-9.5 -12 -14.5 -19 q-8 -10 -6.5 -14.5 q1.5 -4.5 12.5 -12.5 q30 -20 41.5 -38 q11.5 -18 16.5 -43 ZM618 557 q-3 -21 -39 -15 q-13 1 -52 0 q0 -26 -0.5 -51.5 q-0.5 -25.5 -1.5 -48.5 q14 1 30.5 1.5 q16.5 0.5 37.5 1.5 q27 1 34.5 -4 q7.5 -5 5.5 -17 q-4 -24 -46 -15 q-6 2 -23.5 2 q-17.5 0 -40.5 -2 q-2 -32 -4 -57.5 q-2 -25.5 -4 -42.5 q13 1 27 2 q14 1 32 3 q22 2 34 0.5 q12 -1.5 20 -8.5 q9 -7 4 -17.5 q-5 -10.5 -26 -11.5 q-29 -2 -53 -2.5 q-24 -0.5 -45 -2.5 q-9 -44 -18 -74 q-9 -30 -21 -52.5 q-12 -22.5 -27.5 -39 q-15.5 -16.5 -36.5 -32.5 q-32 -24 -54.5 -20 q-22.5 4 -22.5 24 q0 19 17 28 q27 15 45.5 28.5 q18.5 13.5 32 31 q13.5 17.5 23 41.5 q9.5 24 18.5 61 q-24 -3 -43 -6 q-19 -3 -33 -7 q-29 -8 -37 4 q-8 12 7 29 q16 17 55 16 q8 -1 20.5 -1 q12.5 0 37.5 2 q3 20 5.5 45.5 q2.5 25.5 4.5 54.5 q-22 -2 -44.5 -4.5 q-22.5 -2.5 -44.5 -5.5 q-21 -3 -26.5 7 q-5.5 10 9.5 25 q13 14 26.5 18 q13.5 4 31.5 1 q9 -2 21 -2.5 q12 -0.5 29 -1.5 q1 25 1 49.5 q0 24.5 0 47.5 q-20 -2 -39.5 -4.5 q-19.5 -2.5 -39.5 -5.5 q-18 -3 -22.5 5.5 q-4.5 8.5 7.5 24.5 q12 14 23 17.5 q11 3.5 27 1.5 q10 -1 20.5 -1.5 q10.5 -0.5 23.5 -1.5 q0 27 -1.5 48.5 q-1.5 21.5 -3.5 33.5 q-4 27 9 40 q7 6 13 5 q6 -1 14 -11 q4 -5 6.5 -11 q2.5 -6 4 -15 q1.5 -9 2 -24 q0.5 -15 0.5 -38 l0 -28 q24 2 56 3 q21 1 28.5 -5 q7.5 -6 5.5 -16 ZM823 572 q-4 13 -35 23.5 q-31 10.5 -82 11.5 q0 -33 -0.5 -66.5 q-0.5 -33.5 -0.5 -63 q0 -29.5 -0.5 -53 q-0.5 -23.5 -0.5 -36.5 q0 -10 -0.5 -28.5 q-0.5 -18.5 -0.5 -40 q0 -21.5 -0.5 -45 q-0.5 -23.5 -0.5 -42.5 q10 0 23.5 2 q13.5 2 26 5.5 q12.5 3.5 24 8.5 q11.5 5 18.5 11 q30 28 38.5 50.5 q8.5 22.5 5.5 55.5 q-2 29 -23 42 q-21 13 -56 8 q-11 -2 -14.5 0 q-3.5 2 -4.5 8 q-1 9 23 29 q13 8 25.5 24 q12.5 16 17.5 23 q17 27 19.5 41.5 q2.5 14.5 -2.5 31.5 ZM346 305 q-90 -80 -232 -24 q-11 7 -10.5 22 q0.5 15 11.5 28 q22 21 45.5 40.5 q23.5 19.5 52.5 48.5 q7 5 15 14 q-35 -2 -65 8 q-30 10 -48 27 q-8 9 -11 19 q-3 10 1.5 24 q4.5 14 18.5 33 q14 19 40 45 q19 18 31 31 q12 13 18.5 24.5 q6.5 11.5 9.5 23 q3 11.5 5 26.5 q3 17 18 8 q25 -14 34 -33 q9 -19 -2 -35 q-5 -8 -13.5 -16 q-8.5 -8 -24.5 -22 q-18 -13 -29 -22 q-11 -9 -19.5 -16.5 q-8.5 -7.5 -15 -14.5 q-6.5 -7 -13.5 -15 q-14 -14 -13.5 -24 q0.5 -10 14.5 -22 q8 -5 31 -9.5 q23 -4.5 65 -6.5 q5 8 10.5 13 q5.5 5 7.5 7 q17 18 24.5 38 q7.5 20 10.5 35 q0 14 5.5 19 q5.5 5 14.5 -4 q25 -23 25 -49.5 q0 -26.5 -20 -42.5 q-4 -4 -16.5 -15 q-12.5 -11 -28.5 -25.5 q-16 -14.5 -34.5 -31 q-18.5 -16.5 -35 -31.5 q-16.5 -15 -30 -26.5 q-13.5 -11.5 -18.5 -16.5 q-19 -24 -2 -30 q34 -12 70.5 -8.5 q36.5 3.5 77.5 29.5 q9 7 16 6 q7 -1 11 -5.5 q4 -4.5 4 -11 q0 -6.5 -6 -12.5 ZM381 180 q-6 -3 -13.5 -5.5 q-7.5 -2.5 -23.5 -7 q-16 -4.5 -44.5 -11.5 q-28.5 -7 -76.5 -19 q-26 -8 -51 -16.5 q-25 -8.5 -60 -25.5 q-17 -8 -23 6 q-6 14 9 37 q12 16 23 23.5 q11 7.5 40 10.5 q10 1 22.5 2.5 q12.5 1.5 24 3 q11.5 1.5 21 2.5 q9.5 1 14.5 2 q15 3 32.5 6.5 q17.5 3.5 34 7 q16.5 3.5 31.5 6 q15 2.5 26 3.5 q7 0 11 -3 q4 -3 5.5 -7.5 q1.5 -4.5 1 -9 q-0.5 -4.5 -3.5 -5.5 Z" /><glyph glyph-name=".notdef" unicode="&#x5317;" d="M596 690 q10 -3 13.5 -16.5 q3.5 -13.5 -1.5 -41.5 q-2 -12 -3.5 -33 q-1.5 -21 -3 -48 q-1.5 -27 -3 -58.5 q-1.5 -31.5 -2.5 -63.5 q96 19 143 40.5 q47 21.5 60 44.5 q8 10 17.5 11.5 q9.5 1.5 15.5 -5.5 q25 -23 20 -51 q-2 -14 -9.5 -21 q-7.5 -7 -23.5 -10 q-13 -4 -27.5 -8 q-14.5 -4 -38.5 -8.5 q-24 -4.5 -61.5 -10.5 q-37.5 -6 -96.5 -15 q-2 -51 -2.5 -95.5 q-0.5 -44.5 0.5 -67.5 q0 -35 14 -50.5 q14 -15.5 58 -21.5 q102 -16 164.5 -5.5 q62.5 10.5 107.5 49.5 q11 10 16.5 6.5 q5.5 -3.5 3.5 -19.5 q-2 -14 -13.5 -37 q-11.5 -23 -25.5 -41 q-11 -14 -28.5 -20.5 q-17.5 -6.5 -34.5 -5.5 q-134 6 -203.5 24.5 q-69.5 18.5 -89.5 44.5 q-11 14 -15.5 30 q-4.5 16 -2.5 45 q1 33 2 76.5 q1 43.5 2 90 q1 46.5 2 92 q1 45.5 1.5 83 q0.5 37.5 1 62.5 q0.5 25 0.5 31 q0 16 12 23.5 q12 7.5 31 -0.5 ZM420 247 q0 -27 0.5 -53.5 q0.5 -26.5 1.5 -54.5 q0 -24 -9 -36.5 q-9 -12.5 -18 -11.5 q-9 1 -17 15 q-8 14 -8 43 l0 77 l-4 0 q-32 -4 -62 -11 q-30 -7 -55.5 -16 q-25.5 -9 -44.5 -19 q-19 -10 -29 -20 q-20 -19 -29.5 -15 q-9.5 4 -9.5 37 q0 32 11 41 q11 9 39 10 q11 0 31.5 2 q20.5 2 33.5 4 q7 1 20 3.5 q13 2.5 27 4.5 q14 2 26.5 4.5 q12.5 2.5 17.5 3.5 q2 0 10.5 2 q8.5 2 17.5 4 q1 48 1 93.5 q0 45.5 1 87.5 q-26 -2 -64.5 -7.5 q-38.5 -5.5 -107.5 -15.5 q-39 -6 -43 6 q-4 12 24 35 q13 10 24 15.5 q11 5.5 23.5 7 q12.5 1.5 28 0.5 q15.5 -1 37.5 -4 q14 -3 35 -4.5 q21 -1.5 44 0.5 q-1 37 -1.5 66.5 q-0.5 29.5 -1.5 66.5 q-1 19 2.5 30.5 q3.5 11.5 11.5 20.5 q9 10 19 10.5 q10 0.5 21 -13.5 q11 -15 12.5 -38 q1.5 -23 -5.5 -46 q-5 -16 -7.5 -28 q-2.5 -12 -3.5 -29 l0 -268 Z" /><glyph glyph-name=".notdef" unicode="&#x672c;" d="M517 605 q-3 -11 -3 -32 q40 1 70.5 1.5 q30.5 0.5 54.5 1 q24 0.5 43.5 0.5 q19.5 0 37.5 0 q9 0 20.5 0.5 q11.5 0.5 22 1 q10.5 0.5 19.5 1 q9 0.5 13 0.5 q14 1 17 -3.5 q3 -4.5 -7 -19.5 q-8 -12 -16 -18 q-8 -6 -22 -13 q-6 -3 -19.5 -2.5 q-13.5 0.5 -35.5 7.5 q-8 3 -30.5 4.5 q-22.5 1.5 -51.5 2.5 q-29 1 -60.5 1 q-31.5 0 -56.5 0 q0 -9 -0.5 -20.5 q-0.5 -11.5 -0.5 -23.5 q24 -21 48 -40.5 q24 -19.5 53 -41.5 q29 -22 64.5 -49 q35.5 -27 82.5 -61 q51 -37 91.5 -59.5 q40.5 -22.5 68.5 -30.5 q25 -8 -3 -25 q-10 -6 -32.5 -13 q-22.5 -7 -39.5 -9 q-9 -1 -15.5 -0.5 q-6.5 0.5 -13 3.5 q-6.5 3 -14 9 q-7.5 6 -18.5 18 q-35 36 -73 74 q-38 38 -74.5 72.5 q-36.5 34.5 -69 64 q-32.5 29.5 -55.5 49.5 q0 -44 0.5 -99 q0.5 -55 0.5 -130 q32 0 79.5 0 q47.5 0 122.5 1 q14 0 16.5 -3 q2.5 -3 -1.5 -11 q-11 -22 -19.5 -28.5 q-8.5 -6.5 -14.5 -8.5 q-16 -4 -28 -2.5 q-12 1.5 -25 6.5 q-9 3 -19.5 5 q-10.5 2 -25.5 3.5 q-15 1.5 -35.5 1.5 q-20.5 0 -49.5 0 q0 -29 0.5 -57.5 q0.5 -28.5 0.5 -61.5 q0 -22 -8.5 -37.5 q-8.5 -15.5 -22.5 -14.5 q-11 1 -18.5 16.5 q-7.5 15.5 -5.5 44.5 q1 16 1.5 44 q0.5 28 0.5 65 q-52 -2 -90.5 -7.5 q-38.5 -5.5 -65.5 -18.5 q-14 -7 -25.5 -6 q-11.5 1 -16.5 7 q-5 6 -2.5 16 q2.5 10 15.5 22 q19 16 29.5 19 q10.5 3 24.5 2 q14 -2 36.5 -2 q22.5 0 47.5 2 q11 1 22 1.5 q11 0.5 26 0.5 l0 221 q-45 -50 -85 -89.5 q-40 -39.5 -77 -72 q-37 -32.5 -70.5 -59.5 q-33.5 -27 -66.5 -51 q-34 -25 -51.5 -27 q-17.5 -2 -28.5 10 q-8 10 -3 25.5 q5 15.5 33 32.5 q65 38 117.5 75 q52.5 37 89.5 66 q25 20 46 38.5 q21 18.5 38 37 q17 18.5 31 37 q14 18.5 27 38.5 l0 30 q-26 -2 -58 -4.5 q-32 -2.5 -64.5 -6.5 q-32.5 -4 -61.5 -8.5 q-29 -4.5 -49 -8.5 q-19 -4 -29.5 -1 q-10.5 3 -12.5 10.5 q-2 7.5 3 17.5 q5 10 18 20 q18 14 30.5 15.5 q12.5 1.5 26.5 -1.5 q14 -3 25.5 -3.5 q11.5 -0.5 34.5 0.5 q41 1 74 2 q33 1 62 2 q0 19 -0.5 33.5 q-0.5 14.5 -0.5 22.5 q-2 25 -0.5 43 q1.5 18 9.5 30 q11 17 24 15.5 q13 -1.5 20 -19.5 q6 -17 8 -37 q2 -20 -4 -54 Z" /><glyph glyph-name=".notdef" unicode="&#x5fc5;" d="M732 618 q6 -6 8 -12.5 q2 -6.5 -1.5 -16.5 q-3.5 -10 -12.5 -25 q-9 -15 -25 -37 q-32 -46 -76 -92 q-44 -46 -103 -101 q22 -20 42 -37.5 q20 -17.5 39 -33.5 q48 -40 87 -64 q39 -24 75 -37 q36 -13 70.5 -16.5 q34.5 -3.5 73.5 -1.5 q17 1 17.5 -5 q0.5 -6 -11.5 -14 q-24 -17 -47 -26.5 q-23 -9.5 -58 -17.5 q-27 -7 -50.5 -1.5 q-23.5 5.5 -48.5 27.5 q-30 27 -55.5 49.5 q-25.5 22.5 -51 45 q-25.5 22.5 -52.5 48 q-27 25.5 -60 57.5 q-19 -17 -40.5 -34.5 q-21.5 -17.5 -51 -38 q-29.5 -20.5 -68.5 -46.5 q-39 -26 -93 -60 q-50 -32 -76.5 -36.5 q-26.5 -4.5 -35.5 7.5 q-14 17 -8.5 26.5 q5.5 9.5 35.5 23.5 q49 22 89 42.5 q40 20.5 76 42 q36 21.5 70 46 q34 24.5 73 56.5 q-13 12 -26.5 26 q-13.5 14 -28.5 29 q-18 18 -39 34 q-21 16 -42 29.5 q-21 13.5 -39 23.5 q-18 10 -30 14 q-23 8 -33 17 q-10 9 -8 23 q2 14 10.5 22.5 q8.5 8.5 22.5 10.5 q23 2 36.5 -3.5 q13.5 -5.5 19.5 -22.5 q7 -18 18 -34.5 q11 -16.5 39 -37.5 q40 -31 71.5 -57.5 q31.5 -26.5 58.5 -49.5 q43 37 89.5 95 q46.5 58 82.5 127 q8 16 18 25 q10 9 20 13 q10 4 18 3 q8 -1 12 -5 ZM137 359 q0 26 15.5 35 q15.5 9 43.5 2 q22 -5 50 -6.5 q28 -1.5 53 0.5 q20 2 25 -7.5 q5 -9.5 -12 -17.5 q-30 -13 -58.5 -24 q-28.5 -11 -49.5 -16 q-41 -9 -54 0 q-13 9 -13 34 ZM521 656 q18 -16 19.5 -31.5 q1.5 -15.5 -8.5 -32.5 q-3 -6 -8 -16 q-5 -10 -9.5 -20.5 q-4.5 -10.5 -8.5 -20 q-4 -9.5 -6 -13.5 q-5 -12 -10.5 -15.5 q-5.5 -3.5 -10.5 -1 q-5 2.5 -8 10 q-3 7.5 -2 16.5 q0 6 -0.5 16 q-0.5 10 -2 20.5 q-1.5 10.5 -3 20.5 q-1.5 10 -2.5 16 q-5 24 1 38 q6 14 16 19.5 q10 5.5 22 3 q12 -2.5 21 -9.5 ZM744 400 q17 14 34 12 q17 -2 28 -23 q6 -12 5.5 -23.5 q-0.5 -11.5 -6.5 -19.5 q-6 -8 -16.5 -11 q-10.5 -3 -25.5 0 q-20 5 -39 5.5 q-19 0.5 -43 -2.5 q-9 -1 -17.5 0.5 q-8.5 1.5 -12 5.5 q-3.5 4 0 9 q3.5 5 17.5 10 q18 7 42 18.5 q24 11.5 33 18.5 Z" /><glyph glyph-name=".notdef" unicode="&#x907f;" d="M904 63 q-22 -14 -37.5 -21 q-15.5 -7 -38.5 -13 q-25 -7 -47.5 -2 q-22.5 5 -46.5 15 q-35 14 -82 28.5 q-47 14.5 -96 28.5 q-36 11 -75.5 19 q-39.5 8 -80 13 q-40.5 5 -80 6.5 q-39.5 1.5 -74.5 -0.5 q-17 -1 -31.5 -2 q-14.5 -1 -29.5 -3 q-15 -2 -31 -7 q-16 -5 -34 -14 q-14 -8 -23.5 -3 q-9.5 5 -9.5 19 q0 22 25 35 q26 12 37.5 22 q11.5 10 25.5 27 q21 25 28 40 q7 15 6 27 q-1 14 -14 18.5 q-13 4.5 -27 2.5 q-30 -5 -37.5 -1 q-7.5 4 -7.5 15 q-1 8 5 17.5 q6 9.5 22 28.5 q18 24 29.5 38.5 q11.5 14.5 27.5 35.5 q13 19 -23 29 q-23 3 -35.5 1 q-12.5 -2 -26.5 -4 q-21 -3 -28.5 3.5 q-7.5 6.5 0.5 19.5 q8 17 23.5 23.5 q15.5 6.5 44.5 0.5 q20 -7 35.5 -10 q15.5 -3 32.5 -6 q20 -5 30.5 -14 q10.5 -9 11.5 -16 q2 -11 -6.5 -23 q-8.5 -12 -31.5 -34 q-21 -21 -31 -34 q-10 -13 -12 -20 q-2 -7 1.5 -10 q3.5 -3 9.5 -4 q33 -5 43.5 -21.5 q10.5 -16.5 10.5 -36.5 l0 -6 q1 3 8 12 q19 26 36 59.5 q17 33.5 31 84.5 q11 39 12.5 80 q1.5 41 -7.5 95 q-5 29 3.5 38 q8.5 9 31.5 6 q16 -2 35 -2.5 q19 -0.5 37.5 -0.5 q18.5 0 35.5 1 q17 1 30 3 q35 5 45.5 -5 q10.5 -10 0.5 -36 q-8 -19 -13 -43 q-5 -24 -6 -43 q-1 -19 -10 -28.5 q-9 -9.5 -29 -5.5 q-25 5 -52.5 5 q-27.5 0 -62.5 -6 q-2 -16 -6.5 -33 q-4.5 -17 -11.5 -41 q19 -3 35 -5 q16 -2 30.5 -2.5 q14.5 -0.5 30 -1 q15.5 -0.5 33.5 -0.5 q32 1 45 -13.5 q13 -14.5 4 -31.5 q-6 -11 -9 -25.5 q-3 -14.5 -3 -25.5 q0 -40 -20 -54.5 q-20 -14.5 -38 -6.5 q-18 8 -30 8.5 q-12 0.5 -34 -12.5 q-23 -14 -36.5 -4.5 q-13.5 9.5 -13.5 42.5 q0 37 -1 56.5 q-1 19.5 -3 39.5 q-12 -39 -24 -68.5 q-12 -29.5 -27 -53.5 q-15 -24 -27.5 -26 q-12.5 -2 -20.5 6 q-5 4 -7 13 q-5 -10 -13 -22.5 q-8 -12.5 -20 -29.5 q-6 -8 -4.5 -11 q1.5 -3 16.5 -4 q33 -2 81 -6 q48 -4 98 -9.5 q50 -5.5 96 -12 q46 -6.5 75 -12.5 q63 -12 107.5 -20 q44.5 -8 61.5 -12 q26 -6 65.5 -10 q39.5 -4 87.5 -4 q23 -2 25.5 -9 q2.5 -7 -20.5 -21 ZM594 409 q-27 -7 -37 -1.5 q-10 5.5 4 28.5 q8 14 21.5 19.5 q13.5 5.5 42.5 1.5 q7 -1 15 -2 q8 -1 18 -1 q-8 17 -15 31 q-7 14 -15 31 q-7 15 -3.5 30.5 q3.5 15.5 18.5 17.5 q15 2 23 -3.5 q8 -5.5 10 -28.5 q2 -21 3.5 -40 q1.5 -19 4.5 -39 q11 -1 23.5 -1 q12.5 0 26.5 0 q11 30 17.5 48 q6.5 18 13.5 38 q9 26 18.5 30 q9.5 4 22.5 -10 q14 -16 13 -28 q-1 -12 -12 -23 q-17 -17 -27 -27.5 q-10 -10.5 -21 -26.5 q28 1 58.5 2.5 q30.5 1.5 62.5 4.5 q30 3 33 -4 q3 -7 -11 -24 q-8 -9 -14 -14.5 q-6 -5.5 -14 -7.5 q-8 -2 -20.5 -0.5 q-12.5 1.5 -32.5 5.5 q-16 2 -35.5 4 q-19.5 2 -42.5 3 q0 -23 -0.5 -44 q-0.5 -21 -0.5 -41 q26 0 52.5 -0.5 q26.5 -0.5 55.5 -1.5 q28 -1 30 -9 q2 -8 -15 -24 q-13 -11 -25 -13.5 q-12 -2.5 -35 6.5 q-11 4 -26.5 6.5 q-15.5 2.5 -35.5 3.5 q0 -35 1 -63.5 q1 -28.5 2 -49.5 q2 -38 -4.5 -51 q-6.5 -13 -20.5 -14 q-14 -1 -21.5 10.5 q-7.5 11.5 -5.5 46.5 q1 20 2 50 q1 30 2 68 q-15 -2 -31.5 -4 q-16.5 -2 -34.5 -6 q-26 -5 -35.5 -2.5 q-9.5 2.5 -10.5 14.5 q-1 12 6.5 19.5 q7.5 7.5 43.5 10.5 q23 1 62 3 l0 84 q-61 -2 -104 -12 ZM620 578 q-26 -8 -36.5 -3.5 q-10.5 4.5 -10.5 18.5 q0 15 6.5 20 q6.5 5 26.5 7 q29 3 55.5 4.5 q26.5 1.5 51.5 2.5 q-8 10 -17 20 q-9 10 -14 15 q-25 26 4 37 q17 6 28.5 0.5 q11.5 -5.5 13.5 -16.5 q3 -13 6 -29 q3 -16 5 -26 q30 0 56.5 -3 q26.5 -3 49.5 -8 q19 -5 22.5 -10.5 q3.5 -5.5 -8.5 -18.5 q-13 -14 -22 -15.5 q-9 -1.5 -31 6.5 q-41 14 -93 12.5 q-52 -1.5 -93 -13.5 ZM384 571 q1 -14 1 -25.5 q0 -11.5 0 -21.5 q20 2 38 3.5 q18 1.5 36 3.5 q20 2 29.5 9 q9.5 7 11.5 27 q4 29 -6 37.5 q-10 8.5 -30 6.5 q-20 -2 -30.5 -2.5 q-10.5 -0.5 -24.5 -2.5 q-14 -2 -20 -8.5 q-6 -6.5 -5 -26.5 ZM495 333 q0 13 -1 20.5 q-1 7.5 -6.5 11.5 q-5.5 4 -16 5 q-10.5 1 -29.5 1 q-19 0 -29 -1 q-10 -1 -14.5 -5.5 q-4.5 -4.5 -5.5 -14.5 q-1 -10 -1 -28 q0 -15 1 -23.5 q1 -8.5 6.5 -12 q5.5 -3.5 16 -4 q10.5 -0.5 28.5 0.5 q18 1 28 2.5 q10 1.5 15 6.5 q5 5 6.5 14.5 q1.5 9.5 1.5 26.5 ZM257 585 q10 -10 7 -16.5 q-3 -6.5 -18 -2.5 q-37 14 -66 24.5 q-29 10.5 -48 18.5 q-14 6 -18.5 13 q-4.5 7 7.5 21 q14 14 33 15 q19 1 33 -11 q21 -17 39 -33 q18 -16 31 -29 Z" /><glyph glyph-name=".notdef" unicode="&#x62e8;" d="M660 662 q2 -24 -6.5 -67.5 q-8.5 -43.5 -24.5 -97.5 q69 2 126.5 1 q57.5 -1 111.5 -3 q20 -1 23 -9 q3 -8 -4 -18 q-16 -23 -35 -27 q-19 -4 -33 1 q-28 10 -83.5 14 q-55.5 4 -118.5 2 q-8 -22 -16.5 -43 q-8.5 -21 -18.5 -42 q19 -1 40 -1.5 q21 -0.5 40.5 -0.5 q19.5 0 35.5 0.5 q16 0.5 25 1.5 q23 3 38.5 -2 q15.5 -5 23.5 -15 q8 -10 8.5 -23 q0.5 -13 -5.5 -26 q-3 -6 -8 -14 q-5 -8 -15 -20.5 q-10 -12.5 -25 -30.5 q-15 -18 -39 -45 q37 -24 66.5 -40.5 q29.5 -16.5 55 -29.5 q25.5 -13 48.5 -22.5 q23 -9.5 49 -18.5 q28 -10 7 -28 q-29 -25 -58.5 -27 q-29.5 -2 -50.5 18 q-48 45 -81.5 74.5 q-33.5 29.5 -57.5 47.5 q-38 -42 -79 -71.5 q-41 -29.5 -89 -52.5 q-36 -17 -56.5 -13 q-20.5 4 -22.5 18 q-2 15 9 25.5 q11 10.5 47 19.5 q51 13 92 37 q41 24 73 55 q-1 1 -2 1.5 q-1 0.5 -3 2.5 q-35 22 -56 31.5 q-21 9.5 -41 17.5 q-16 5 -17 16 q-1 11 13 21 q8 5 19 5 q11 0 16 -5 q20 -17 44 -33.5 q24 -16.5 47 -30.5 l2 -2 q32 39 49 81 q9 24 2 31.5 q-7 7.5 -41 8.5 q-38 1 -65 0.5 q-27 -0.5 -58 -1.5 q-36 -66 -83 -120 q-47 -54 -104 -89 q-14 -8 -32 -7.5 q-18 0.5 -22 9.5 q-5 14 -0.5 25 q4.5 11 27.5 24 q48 26 82.5 56.5 q34.5 30.5 60.5 65.5 q26 35 45 74.5 q19 39.5 36 84.5 q-24 -2 -39.5 -3.5 q-15.5 -1.5 -27 -3.5 q-11.5 -2 -20 -4.5 q-8.5 -2.5 -17.5 -5.5 q-41 -14 -55 2 q-9 11 -6.5 27.5 q2.5 16.5 15.5 35.5 q13 18 18 47.5 q5 29.5 0 75.5 q-2 11 5.5 22 q7.5 11 20.5 11 q14 0 24 -17 q10 -17 6 -33 q-8 -31 -14 -55.5 q-6 -24.5 -11 -45.5 q-4 -16 0 -19 q4 -3 27 -1 q4 0 13 0.5 q9 0.5 21.5 1.5 q12.5 1 26.5 2.5 q14 1.5 27 2.5 q18 51 23 85 q5 34 -1 72 q-3 19 3 32 q6 13 16 13 q12 1 22 -9 q10 -10 12 -27 ZM301 648 q-2 -10 -4.5 -44.5 q-2.5 -34.5 -4.5 -77.5 q14 -1 29 -1 q15 0 32 0 q25 0 30 -13 q2 -8 -5 -14 q-7 -6 -19 -8 q-11 -2 -29 -2.5 q-18 -0.5 -39 -0.5 q-2 -26 -2.5 -49 q-0.5 -23 -0.5 -41 q14 3 29 6.5 q15 3.5 32 8.5 q10 2 14 1.5 q4 -0.5 7 -3.5 q5 -5 3 -11.5 q-2 -6.5 -9 -10.5 q-17 -10 -35.5 -19.5 q-18.5 -9.5 -38.5 -18.5 q1 -44 1.5 -76 q0.5 -32 -0.5 -56 q-1 -24 -2.5 -42 q-1.5 -18 -4.5 -34 q-8 -46 -48.5 -77.5 q-40.5 -31.5 -106.5 -39.5 q-18 -2 -23.5 1 q-5.5 3 -10.5 15 q-4 10 1.5 20.5 q5.5 10.5 20.5 16.5 q10 4 26 9 q16 5 39 13 q34 11 47.5 35 q13.5 24 16.5 72 q0 10 1 25 q1 15 1.5 32.5 q0.5 17.5 1.5 36 q1 18.5 1 33.5 q-27 -11 -51 -19.5 q-24 -8.5 -41 -13.5 q-25 -8 -34.5 -6.5 q-9.5 1.5 -17.5 12.5 q-5 8 1.5 20 q6.5 12 30.5 23 q13 5 38 14 q25 9 73 22 q0 22 -0.5 47.5 q-0.5 25.5 -0.5 52.5 l-111 0 q-22 0 -28 11 q-6 11 8 23 q17 14 26.5 17 q9.5 3 27.5 1 q17 -2 35.5 -4.5 q18.5 -2.5 41.5 -4.5 q0 40 0 73 q0 33 2 47 q3 48 38 46 q8 0 12 -12 q4 -12 0 -35 ZM789 641 q2 -4 6.5 -15 q4.5 -11 10 -24 q5.5 -13 11 -25.5 q5.5 -12.5 8.5 -20.5 q8 -17 0.5 -22.5 q-7.5 -5.5 -22.5 10.5 q-5 5 -13.5 13 q-8.5 8 -18 16.5 q-9.5 8.5 -19 16.5 q-9.5 8 -16.5 14 q-13 10 -14.5 24 q-1.5 14 12.5 25 q14 11 31.5 6.5 q17.5 -4.5 23.5 -18.5 Z" /><glyph glyph-name=".notdef" unicode="&#x6b65;" d="M306 601 q24 -10 35.5 -35.5 q11.5 -25.5 2.5 -47.5 q-9 -23 -13 -36 q-4 -13 -6 -30 q70 7 164 9 q-2 69 -5 113 q-3 44 -7 69 q-3 17 -2 27 q1 10 6 17 q7 10 11.5 11 q4.5 1 9.5 -3 q40 -29 37 -89 q-1 -8 -1 -14 q0 -6 -1 -13 q30 1 62 6 q32 5 73 16 q40 11 46 -16 q5 -20 -3 -27.5 q-8 -7.5 -29 -8.5 q-37 -2 -71.5 -1 q-34.5 1 -79.5 5 q-2 -18 -4 -40 q-2 -22 -7 -51 q90 1 184.5 -3.5 q94.5 -4.5 181.5 -12.5 q23 -2 26.5 -7 q3.5 -5 -3.5 -16 q-12 -20 -24 -29 q-12 -9 -32 -14 q-20 -5 -31.5 -3.5 q-11.5 1.5 -23.5 6.5 q-63 27 -127 38.5 q-64 11.5 -151 11.5 q-111 0 -201.5 -14.5 q-90.5 -14.5 -142.5 -37.5 q-36 -16 -51 -1 q-10 10 -7 22 q3 12 29 27 q9 5 16 8 q7 3 14.5 4.5 q7.5 1.5 16.5 1.5 q9 0 22 -1 q5 -1 23.5 0 q18.5 1 44.5 5 q8 28 7 48.5 q-1 20.5 -8 49.5 q-10 38 -5.5 51 q4.5 13 24.5 5 ZM708 361 q24 -20 24.5 -40 q0.5 -20 -29.5 -39 q-19 -12 -38.5 -24 q-19.5 -12 -46.5 -28 q-27 -16 -64 -38 q-37 -22 -90 -53 q-70 -41 -117.5 -66 q-47.5 -25 -82.5 -38 q-35 -13 -63.5 -17 q-28.5 -4 -59.5 -3 q-13 0 -20 5.5 q-7 5.5 -5 19.5 q1 7 3 11 q2 4 8 7 q6 3 16.5 5.5 q10.5 2.5 28.5 4.5 q19 2 37 6.5 q18 4.5 51 17 q33 12.5 88 37 q55 24.5 147 66.5 q-5 29 -7.5 51.5 q-2.5 22.5 -5 43 q-2.5 20.5 -4 42 q-1.5 21.5 -2.5 47.5 q-2 31 3 38 q5 7 27 0 q29 -9 23 -61 q-2 -13 -3 -26.5 q-1 -13.5 -2 -31 q-1 -17.5 -2 -39.5 q-1 -22 -2 -51 q24 13 52 31 q28 18 59 44 q13 11 24 28 q11 17 17 34 q6 18 14 22.5 q8 4.5 22 -6.5 ZM256 289 q38 2 66 12 q28 10 57 29 q15 10 19.5 7.5 q4.5 -2.5 -0.5 -21.5 q-3 -11 -16 -25.5 q-13 -14.5 -30.5 -28 q-17.5 -13.5 -36 -24 q-18.5 -10.5 -31.5 -14.5 q-22 -6 -32.5 -2.5 q-10.5 3.5 -16.5 20.5 q-11 29 -6.5 37 q4.5 8 27.5 10 Z" /><glyph glyph-name=".notdef" unicode="&#x67e5;" d="M703 329 q-5 -23 -8.5 -55.5 q-3.5 -32.5 -6.5 -69.5 q-2 -26 -12 -36.5 q-10 -10.5 -41 -4.5 q-30 6 -66 8 q-36 2 -71.5 1.5 q-35.5 -0.5 -66.5 -3.5 q-31 -3 -51 -7 q-29 -6 -39 0 q-10 6 -12 34 q-1 20 -3 41 q-2 21 -4 38.5 q-2 17.5 -4 30 q-2 12.5 -4 15.5 q-9 23 -1.5 38 q7.5 15 39.5 19 q10 1 32.5 2 q22.5 1 51.5 1.5 q29 0.5 61.5 1.5 q32.5 1 62.5 1 q30 0 54.5 -0.5 q24.5 -0.5 37.5 -1.5 q32 -2 43.5 -14 q11.5 -12 7.5 -39 ZM529 655 q-1 -14 -1 -27 q0 -13 0 -26 q48 1 99 -0.5 q51 -1.5 126 -4.5 q16 -1 23.5 -6.5 q7.5 -5.5 6.5 -11.5 q-1 -6 -10.5 -10.5 q-9.5 -4.5 -28.5 -4.5 q-66 2 -119 2.5 q-53 0.5 -98 1.5 l0 -12 q76 -39 121.5 -62 q45.5 -23 77.5 -39 q32 -16 58 -28 q26 -12 63 -29 q17 -8 19 -12 q2 -4 -8 -12 q-12 -10 -25 -17 q-13 -7 -27 -10 q-14 -3 -26 1.5 q-12 4.5 -29 20.5 q-29 26 -53.5 46.5 q-24.5 20.5 -49.5 39 q-25 18.5 -54 36.5 q-29 18 -67 39 q0 -15 0 -30 q0 -15 1 -31 q1 -26 -6 -42 q-7 -16 -18 -16 q-13 0 -20.5 14 q-7.5 14 -6.5 41 q1 26 1 50 q0 24 0 47 q-23 -35 -48.5 -63.5 q-25.5 -28.5 -54 -52.5 q-28.5 -24 -61 -44 q-32.5 -20 -70.5 -39 q-59 -29 -83 4 q-9 14 -3.5 21.5 q5.5 7.5 38.5 16.5 q24 7 58 22.5 q34 15.5 69 37 q35 21.5 66.5 47.5 q31.5 26 51.5 54 q-73 -1 -115 -4.5 q-42 -3.5 -71 -8.5 q-15 -3 -25 1.5 q-10 4.5 -13.5 12 q-3.5 7.5 1.5 16.5 q5 9 20 15 q16 7 27 8 q11 1 31 -2 q6 -1 15.5 -2 q9.5 -1 29 -1.5 q19.5 -0.5 52 -0.5 q32.5 0 85.5 0 l0 43 q0 30 6.5 43 q6.5 13 17.5 13 q10 0 18.5 -13.5 q8.5 -13.5 8.5 -31.5 ZM155 33 q-18 -5 -29 -2 q-11 3 -14.5 10 q-3.5 7 1 16 q4.5 9 18.5 17 q28 17 46.5 20 q18.5 3 41.5 1 q12 0 53.5 1 q41.5 1 93.5 5 q100 6 229 5 q129 -1 282 -15 q23 -2 27 -9 q4 -7 -6 -18 q-12 -14 -21 -21 q-9 -7 -21 -13 q-11 -5 -20 -4.5 q-9 0.5 -33 8.5 q-69 23 -150.5 31 q-81.5 8 -184.5 6 q-50 -1 -97 -5 q-47 -4 -88 -9 q-41 -5 -74 -11.5 q-33 -6.5 -54 -12.5 ZM645 261 q-38 2 -70 2.5 q-32 0.5 -63.5 0.5 q-31.5 0 -65.5 -1 q-34 -1 -74 -3 q1 -8 1.5 -16 q0.5 -8 1.5 -16 q1 -15 7.5 -20.5 q6.5 -5.5 29.5 -3.5 q42 2 94 1.5 q52 -0.5 101 -6.5 q20 -2 25 4 q5 6 9 26 q1 7 2 15.5 q1 8.5 2 16.5 ZM648 311 q0 23 -9 30.5 q-9 7.5 -39 9.5 q-11 1 -35 2 q-24 1 -52 1 q-28 0 -56 -0.5 q-28 -0.5 -49 -1.5 q-26 -2 -33.5 -8.5 q-7.5 -6.5 -7.5 -31.5 q0 -5 0.5 -9 q0.5 -4 0.5 -9 q40 0 74.5 0.5 q34.5 0.5 67.5 1 q33 0.5 66.5 0.5 q33.5 0 71.5 -1 l0 16 Z" /><glyph glyph-name=".notdef" unicode="&#x5e38;" d="M729 204 q-2 -9 -3.5 -21.5 q-1.5 -12.5 -2.5 -25.5 q-1 -13 -1 -25.5 q0 -12.5 1 -21.5 q2 -18 -3.5 -32.5 q-5.5 -14.5 -17.5 -16.5 q-24 -5 -24 41 q0 10 0 24 q0 14 -0.5 28.5 q-0.5 14.5 -0.5 27.5 q0 13 0 22 q0 20 -9.5 27 q-9.5 7 -33.5 6 q-32 -1 -57.5 -1 q-25.5 0 -48.5 -1 q-2 -47 -1.5 -86 q0.5 -39 2.5 -71 q2 -23 -2 -36.5 q-4 -13.5 -10 -21.5 q-8 -11 -20 -8.5 q-12 2.5 -15 15.5 q-2 11 -3 20.5 q-1 9.5 0 35.5 q0 17 1 57 q1 40 3 93 q-23 -1 -46.5 -1 q-23.5 0 -51.5 -1 q-20 -1 -29 -6 q-9 -5 -12 -24 q-5 -28 -12 -47.5 q-7 -19.5 -18.5 -34.5 q-11.5 -15 -28.5 -25.5 q-17 -10.5 -41 -20.5 q-32 -13 -48 -11.5 q-16 1.5 -28 14.5 q-17 18 -13.5 29.5 q3.5 11.5 21.5 12.5 q25 1 42 4 q17 3 29 7 q12 4 20 10.5 q8 6.5 14 15.5 q15 22 19.5 37 q4.5 15 -0.5 37 q-3 23 0.5 31 q3.5 8 14.5 13 q13 6 21.5 6 q8.5 0 17.5 -3 q14 -5 48 -7 q34 -2 82 -2 q1 19 1 38 q0 19 1 38 q-43 -1 -77.5 -4 q-34.5 -3 -48.5 -9 q-23 -9 -34 0 q-11 9 -9 29 q2 20 3 36 q1 16 3 37 q2 24 10 31 q8 7 32 5 q122 -7 189.5 -5 q67.5 2 83.5 5 q22 4 38 -8 q12 -9 14 -17 q2 -8 -3 -16 q-5 -8 -7 -21 q-2 -13 -1 -37 q1 -19 -7.5 -25.5 q-8.5 -6.5 -27.5 -4.5 q-25 2 -53 3 q-28 1 -57 1 q-2 -20 -2.5 -38.5 q-0.5 -18.5 -1.5 -36.5 q29 2 60 3.5 q31 1.5 63 4.5 q56 4 70 -18 q8 -14 9.5 -24 q1.5 -10 -3.5 -30 ZM860 365 q-3 -10 -9 -14.5 q-6 -4.5 -13 -3.5 q-7 1 -13 7.5 q-6 6.5 -7 20.5 q-2 23 -6 47.5 q-4 24.5 -6 35.5 q-5 20 -14 28 q-9 8 -35 13 q-19 3 -57.5 5 q-38.5 2 -86.5 3 q-48 1 -101.5 0.5 q-53.5 -0.5 -102.5 -2 q-49 -1.5 -89.5 -3.5 q-40.5 -2 -62.5 -5 q-17 -2 -28 -5 q-11 -3 -17 -8.5 q-6 -5.5 -8.5 -13 q-2.5 -7.5 -3.5 -18.5 q-3 -29 -7 -58.5 q-4 -29.5 -7 -41.5 q-5 -18 -12.5 -18.5 q-7.5 -0.5 -20.5 15.5 q-7 8 -9 20 q-2 12 3 34 q5 26 9 48.5 q4 22.5 11 53.5 q5 23 13.5 31.5 q8.5 8.5 27.5 3.5 q19 -5 44.5 -6.5 q25.5 -1.5 76.5 0.5 q39 2 77.5 3 q38.5 1 75.5 2 q-3 43 -4 70.5 q-1 27.5 -1 48.5 q0 24 6 34.5 q6 10.5 23 9.5 q12 -1 19 -9.5 q7 -8.5 6 -25.5 q-1 -16 -3 -48.5 q-2 -32.5 -5 -78.5 q52 1 98.5 0.5 q46.5 -0.5 83.5 -1.5 q37 -1 63 -3 q26 -2 37 -5 q42 -11 50 -21.5 q8 -10.5 2 -23.5 q-6 -13 -6.5 -20.5 q-0.5 -7.5 3.5 -22.5 q8 -32 8.5 -49.5 q0.5 -17.5 -2.5 -28.5 ZM638 405 q1 14 -5 20.5 q-6 6.5 -25 10.5 q-8 1 -35 2 q-27 1 -59.5 1 q-32.5 0 -64 -0.5 q-31.5 -0.5 -48.5 -1.5 q-20 -1 -28.5 -9 q-8.5 -8 -10.5 -29 q-1 -11 -0.5 -17.5 q0.5 -6.5 4 -9.5 q3.5 -3 11 -4 q7.5 -1 19.5 -1 q18 0 45 0.5 q27 0.5 57 1 q30 0.5 60 2 q30 1.5 55 3.5 q16 2 20 7.5 q4 5.5 5 23.5 ZM712 662 q6 -13 3.5 -29.5 q-2.5 -16.5 -16.5 -22.5 q-9 -4 -22 -11 q-13 -7 -26 -14.5 q-13 -7.5 -24.5 -14 q-11.5 -6.5 -16.5 -9.5 q-13 -8 -19.5 -1 q-6.5 7 7.5 20 q10 9 21 21 q11 12 21 24.5 q10 12.5 18 24 q8 11.5 11 18.5 q7 11 21.5 11 q14.5 0 21.5 -17 ZM377 571 q6 -15 -0.5 -20 q-6.5 -5 -17.5 6 q-20 20 -41 39 q-21 19 -33 30 q-14 12 -13 25 q1 13 22 19 q18 5 32 -1 q14 -6 22 -23 q6 -14 14.5 -36.5 q8.5 -22.5 14.5 -38.5 Z" /><glyph glyph-name=".notdef" unicode="&#x6210;" d="M464 333 q-5 -11 -7.5 -21 q-2.5 -10 -1.5 -31 q1 -17 -4 -38.5 q-5 -21.5 -15.5 -41.5 q-10.5 -20 -27 -37 q-16.5 -17 -38.5 -26 q-12 -5 -22 -4.5 q-10 0.5 -15.5 5 q-5.5 4.5 -3.5 11 q2 6.5 14 12.5 q25 13 40.5 34 q15.5 21 22.5 44.5 q7 23.5 6.5 46 q-0.5 22.5 -7.5 37.5 q-9 20 -20.5 27 q-11.5 7 -32.5 1 q-12 -4 -31.5 -6.5 q-19.5 -2.5 -42.5 -5.5 q-3 -51 -11 -84.5 q-8 -33.5 -19 -59.5 q-22 -51 -46 -83.5 q-24 -32.5 -59 -52.5 q-38 -23 -55 9 q-8 15 -4.5 21 q3.5 6 18.5 14 q57 29 92 85.5 q35 56.5 40 144.5 q4 63 1.5 101 q-2.5 38 -10.5 65 q-10 32 0.5 54 q10.5 22 33.5 16 q9 -3 23 -5 q14 -2 41 -3 q27 -1 70.5 -1 q43.5 0 111.5 1 q-1 21 -1.5 33 q-0.5 12 -0.5 20.5 q0 8.5 0 15.5 q0 7 0 16 q0 58 23 60 q33 1 30 -56 q-2 -24 -2.5 -46 q-0.5 -22 0.5 -42 q46 1 101 1.5 q55 0.5 124 2.5 q26 1 28.5 -5.5 q2.5 -6.5 -14.5 -21.5 q-17 -16 -34 -21 q-17 -5 -49 1 q-20 4 -59.5 6 q-39.5 2 -94.5 3 q5 -70 19.5 -126 q14.5 -56 45.5 -110 q15 22 34 47 q19 25 30 39 q33 49 60 25 q46 -37 -7 -76 q-20 -13 -42 -34 q-22 -21 -47 -50 q85 -124 243 -151 q22 -4 25.5 -17 q3.5 -13 -14.5 -21 q-17 -8 -35.5 -13 q-18.5 -5 -38.5 -7 q-13 -2 -33.5 6 q-20.5 8 -39.5 22 q-17 12 -35.5 28.5 q-18.5 16.5 -37 35.5 q-18.5 19 -36 39 q-17.5 20 -31.5 39 q-12 -14 -26.5 -30.5 q-14.5 -16.5 -31.5 -36.5 q-49 -60 -69 -65.5 q-20 -5.5 2 32.5 q3 5 12 18.5 q9 13.5 22 33 q13 19.5 29.5 42.5 q16.5 23 33.5 47 q-15 28 -28.5 62 q-13.5 34 -24.5 71 q-11 37 -18 75 q-7 38 -10 75 q-42 0 -87.5 0 q-45.5 0 -96.5 -2 q-27 -1 -35 -10 q-8 -9 -7 -38 q0 -26 0 -49 q0 -23 -1 -43 q46 0 77.5 0.5 q31.5 0.5 54.5 0.5 q24 0 31 -3 q7 -3 14 -14 q10 -16 11 -22.5 q1 -6.5 -4 -15.5 ZM643 686 q12 9 26.5 6 q14.5 -3 25.5 -27 q7 -14 13.5 -31 q6.5 -17 10.5 -31 q4 -14 -3.5 -18.5 q-7.5 -4.5 -20.5 8.5 q-12 12 -26.5 23.5 q-14.5 11.5 -25.5 17.5 q-19 10 -18 24.5 q1 14.5 18 27.5 Z" /><glyph glyph-name=".notdef" unicode="&#x6301;" d="M315 617 q-2 -19 -2.5 -37.5 q-0.5 -18.5 -1.5 -37.5 q14 -1 26.5 -1.5 q12.5 -0.5 23.5 -0.5 q28 -1 41 -7.5 q13 -6.5 12 -13.5 q-1 -7 -15 -13 q-14 -6 -41 -6 l-48 0 q-1 -31 -1.5 -62 q-0.5 -31 0.5 -62 q11 2 22.5 3 q11.5 1 25.5 3 q12 1 17.5 -3 q5.5 -4 4.5 -10 q-1 -6 -9 -12.5 q-8 -6.5 -24 -10.5 q-8 -2 -17 -4.5 q-9 -2.5 -20 -5.5 q1 -13 1 -25.5 q0 -12.5 1 -24.5 q2 -57 -5.5 -102 q-7.5 -45 -30.5 -82 q-17 -26 -50.5 -45.5 q-33.5 -19.5 -75.5 -25.5 q-31 -5 -50.5 3.5 q-19.5 8.5 -33.5 26.5 q-15 20 -10.5 25.5 q4.5 5.5 30.5 4.5 q35 -2 65 6.5 q30 8.5 57 25.5 q28 18 41.5 48 q13.5 30 18.5 86 q1 11 1.5 28 q0.5 17 0.5 38 q-24 -8 -49.5 -18 q-25.5 -10 -51.5 -21 q-17 -8 -27 -8.5 q-10 -0.5 -14 4 q-4 4.5 -3.5 12.5 q0.5 8 4.5 16 q8 17 26 29.5 q18 12.5 60 21.5 q15 3 28.5 6 q13.5 3 26.5 5 q0 32 0 65.5 q0 33.5 -1 63.5 q-33 -1 -62.5 -3 q-29.5 -2 -59.5 -7 q-24 -4 -37 -2.5 q-13 1.5 -17.5 7 q-4.5 5.5 -1.5 13 q3 7.5 11 15.5 q7 7 13 12 q6 5 14.5 8 q8.5 3 21 3.5 q12.5 0.5 32.5 -0.5 q20 -1 42 -1.5 q22 -0.5 43 -0.5 q0 17 -0.5 29.5 q-0.5 12.5 -0.5 20.5 q0 11 0 24.5 q0 13.5 0.5 26.5 q0.5 13 1.5 24 q1 11 3 17 q6 17 14.5 18.5 q8.5 1.5 16.5 -8.5 q5 -6 8 -11 q3 -5 4.5 -13 q1.5 -8 1.5 -20.5 q0 -12.5 -1 -33.5 ZM801 562 q4 -2 5.5 -6.5 q1.5 -4.5 -2 -9.5 q-3.5 -5 -14 -8.5 q-10.5 -3.5 -31.5 -3.5 q-26 -1 -48.5 -1 q-22.5 0 -44.5 -1 q1 -18 1 -37 q0 -19 2 -42 q49 2 105.5 0 q56.5 -2 134.5 -6 q26 -2 28 -10 q2 -8 -24 -33 q-20 -19 -42.5 -18.5 q-22.5 0.5 -54.5 12.5 q-37 14 -80.5 19 q-43.5 5 -109.5 2 q-63 -3 -104 -12 q-41 -9 -70 -26 q-20 -11 -36.5 -6.5 q-16.5 4.5 -22.5 26.5 q-5 15 3 21.5 q8 6.5 31 9.5 q60 8 104 12.5 q44 4.5 89 6.5 q-1 26 -1 45 q0 19 0 35 q-55 -2 -101 -6 q-35 -3 -44.5 1.5 q-9.5 4.5 -9.5 14.5 q0 16 14.5 26 q14.5 10 51.5 7 q22 -2 40.5 -3 q18.5 -1 48.5 0 q-1 20 -1.5 37 q-0.5 17 -1.5 40 q-1 18 2.5 31.5 q3.5 13.5 9.5 21 q6 7.5 13 8.5 q7 1 13 -7 q9 -12 12 -26.5 q3 -14.5 2 -49.5 q-1 -15 -1.5 -28 q-0.5 -13 -0.5 -26 q15 0 32.5 0.5 q17.5 0.5 38.5 1.5 q15 1 34 -2 q19 -3 30 -10 ZM760 342 q-1 -5 -1 -9 q0 -4 -1 -9 q26 0 47 0.5 q21 0.5 29 1.5 q28 2 33.5 -6 q5.5 -8 -5.5 -24 q-8 -11 -26 -16.5 q-18 -5.5 -46 1.5 q-8 2 -16.5 3 q-8.5 1 -17.5 3 q-1 -24 -1 -49.5 q0 -25.5 2 -72.5 q2 -57 -9.5 -93 q-11.5 -36 -40.5 -50 q-48 -22 -91 -10.5 q-43 11.5 -78 44.5 q-20 19 -18.5 25 q1.5 6 22.5 -3 q23 -10 55.5 -11 q32.5 -1 58.5 7 q26 8 37.5 33 q11.5 25 14.5 73 q2 24 2.5 53.5 q0.5 29.5 1.5 55.5 q-31 -1 -81 -4 q-50 -3 -134 -10 q-27 -2 -40 0.5 q-13 2.5 -17 8 q-4 5.5 -0.5 12.5 q3.5 7 11.5 15 q13 13 30 18.5 q17 5.5 55 0.5 q10 -2 29 -3 q19 -1 42.5 -2 q23.5 -1 50.5 -1 q27 0 54 0 l0 9 q-2 42 9 58 q11 16 22 9 q6 -4 10 -8 q4 -4 6 -10 q2 -6 2 -15.5 q0 -9.5 -1 -24.5 ZM504 216 q28 5 40.5 1.5 q12.5 -3.5 28.5 -15.5 q14 -11 30.5 -24 q16.5 -13 31.5 -24 q17 -13 10.5 -22 q-6.5 -9 -26.5 -1 q-25 10 -55.5 19.5 q-30.5 9.5 -59.5 17.5 q-15 6 -22.5 13.5 q-7.5 7.5 -7 14.5 q0.5 7 8 12.5 q7.5 5.5 21.5 7.5 Z" /><glyph glyph-name=".notdef" unicode="&#x6b64;" d="M847 466 q13 -20 3 -34.5 q-10 -14.5 -51 -25.5 q-42 -11 -90 -20 q-48 -9 -116 -19 q-1 -41 -1 -74.5 q0 -33.5 1 -53.5 q1 -30 3.5 -47.5 q2.5 -17.5 10 -27.5 q7.5 -10 20.5 -15.5 q13 -5.5 35 -9.5 q55 -11 89.5 -15 q34.5 -4 57 2.5 q22.5 6.5 37.5 25 q15 18.5 31 51.5 q5 10 12 14 q7 4 13 2 q6 -2 9.5 -9 q3.5 -7 0.5 -17 q-12 -49 -23 -73 q-11 -24 -24 -35 q-9 -8 -20.5 -12.5 q-11.5 -4.5 -27.5 -5.5 q-16 -1 -37.5 2 q-21.5 3 -51.5 12 q-35 10 -57 16 q-22 6 -36.5 8.5 q-14.5 2.5 -25 2.5 q-10.5 0 -22.5 -2 q-29 -5 -38.5 8.5 q-9.5 13.5 -7.5 56.5 q3 64 4.5 118 q1.5 54 2 105 q0.5 51 0.5 102.5 q0 51.5 0 111.5 q0 38 8.5 52 q8.5 14 24.5 16 q18 2 28 -21 q10 -23 3 -57 q-7 -32 -11 -86 q-4 -54 -6 -110 q36 9 62.5 16.5 q26.5 7.5 46.5 15.5 q20 8 35.5 17 q15.5 9 29.5 20 q23 19 43.5 18 q20.5 -1 34.5 -23 ZM236 465 q-2 -16 -3 -47 q-1 -31 -2.5 -71 q-1.5 -40 -2.5 -85 q-1 -45 -1 -88 q16 4 35 8.5 q19 4.5 44 10.5 q4 1 14 3 q1 65 1 128 q0 63 -1.5 115.5 q-1.5 52.5 -3 90.5 q-1.5 38 -3.5 53 q-3 26 -1.5 35.5 q1.5 9.5 6.5 17.5 q9 11 15 11 q6 0 20 -11 q18 -16 20.5 -31 q2.5 -15 -3.5 -40 q-2 -12 -4 -43 q-2 -31 -1 -72 q31 0 53.5 0 q22.5 0 40.5 -1 q22 -1 34.5 -6.5 q12.5 -5.5 11.5 -16.5 q-1 -9 -11.5 -13.5 q-10.5 -4.5 -37.5 -5.5 q-26 -1 -46 -1 q-20 0 -43 -1 q0 -13 -0.5 -38 q-0.5 -25 -1 -52 q-0.5 -27 -2 -51 q-1.5 -24 -3.5 -36 q-2 -6 -2.5 -12 q-0.5 -6 -1.5 -11 q15 3 32 7 q17 4 32.5 7.5 q15.5 3.5 28 6 q12.5 2.5 20.5 4.5 q14 2 21 -3 q7 -5 5.5 -13 q-1.5 -8 -12.5 -16.5 q-11 -8.5 -32 -12.5 q-57 -10 -100.5 -19.5 q-43.5 -9.5 -78.5 -19.5 q-35 -10 -65.5 -20.5 q-30.5 -10.5 -61.5 -23.5 q-28 -11 -40 -3.5 q-12 7.5 -2 28.5 q8 20 15.5 24.5 q7.5 4.5 23.5 6.5 q9 0 44 7 q-1 46 -2.5 93 q-1.5 47 -3.5 88.5 q-2 41.5 -4 73.5 q-2 32 -3 47 q-2 16 -2.5 25 q-0.5 9 0 15 q0.5 6 1.5 9 q1 3 4 7 q14 17 20.5 17 q6.5 0 18.5 -11 q14 -15 18.5 -27 q4.5 -12 2.5 -37 Z" /><glyph glyph-name=".notdef" unicode="&#x6b21;" d="M578 393 q-2 27 5.5 45 q7.5 18 18.5 17 q14 -1 23.5 -21 q9.5 -20 5.5 -52 q-2 -20 -7.5 -40.5 q-5.5 -20.5 -15.5 -43.5 q11 -23 23.5 -41.5 q12.5 -18.5 31 -37 q18.5 -18.5 45 -37.5 q26.5 -19 65.5 -42 q40 -24 82 -37 q42 -13 74 -15 q12 -1 14 -7 q2 -6 -10 -17 q-12 -11 -29.5 -20 q-17.5 -9 -34.5 -14 q-21 -5 -40 1 q-19 6 -48 29 q-32 24 -57.5 46.5 q-25.5 22.5 -48.5 45.5 q-23 23 -44 48.5 q-21 25.5 -44 55.5 q-35 -63 -90.5 -121 q-55.5 -58 -124.5 -95 q-34 -18 -54.5 -17.5 q-20.5 0.5 -28.5 14.5 q-9 16 -3 25.5 q6 9.5 26 17.5 q63 24 113.5 56 q50.5 32 88.5 80 q39 49 53 89.5 q14 40.5 11 87.5 ZM161 178 q-32 -21 -49.5 -12 q-17.5 9 -11.5 39 q6 30 19 42 q13 12 42 18 q26 4 61.5 13.5 q35.5 9.5 83.5 23.5 q37 10 43.5 -1.5 q6.5 -11.5 -23.5 -26.5 q-55 -29 -94.5 -52.5 q-39.5 -23.5 -70.5 -43.5 ZM169 505 q-32 6 -33 18.5 q-1 12.5 25 29.5 q26 16 43 14.5 q17 -1.5 31 -12.5 q20 -17 37.5 -26.5 q17.5 -9.5 41.5 -16.5 q35 -12 32 -24.5 q-3 -12.5 -40 -6.5 q-28 5 -63.5 10.5 q-35.5 5.5 -73.5 13.5 ZM506 667 q0 26 13.5 34.5 q13.5 8.5 42.5 -7.5 q20 -11 22.5 -22 q2.5 -11 -5.5 -30 q-13 -29 -25 -58 q-12 -29 -26 -60 q30 1 61.5 1.5 q31.5 0.5 59.5 0.5 q28 0 50 -0.5 q22 -0.5 34 -0.5 q40 -3 64.5 -11 q24.5 -8 35.5 -19.5 q11 -11.5 10 -25 q-1 -13.5 -13 -27.5 q-25 -29 -56.5 -50 q-31.5 -21 -69.5 -40 q-14 -7 -21.5 -7 q-7.5 0 -9.5 3.5 q-2 3.5 2 10.5 q4 7 14 15 q16 12 27 21 q11 9 18.5 17.5 q7.5 8.5 13 16.5 q5.5 8 10.5 19 q9 19 -2 27.5 q-11 8.5 -43 12.5 q-26 2 -82 1.5 q-56 -0.5 -120 -5.5 q-17 -26 -46.5 -61.5 q-29.5 -35.5 -74.5 -77.5 q-23 -20 -31 -10 q-8 10 15 39 q30 38 54.5 80 q24.5 42 42 81.5 q17.5 39.5 26.5 74 q9 34.5 9 57.5 Z" /><glyph glyph-name=".notdef" unicode="&#x6253;" d="M328 613 q-2 -5 -3 -12.5 q-1 -7.5 -2 -15.5 q9 1 18.5 1 q9.5 0 20.5 1 q28 2 45.5 -6 q17.5 -8 15.5 -17 q-5 -16 -45 -17 q-14 -1 -28.5 -1 q-14.5 0 -30.5 -1 q-2 -26 -4 -60.5 q-2 -34.5 -4 -79.5 q15 1 29.5 2 q14.5 1 27.5 3 q19 2 25 -1.5 q6 -3.5 4 -11.5 q-3 -10 -12.5 -16 q-9.5 -6 -29.5 -9 q-13 -2 -23.5 -3.5 q-10.5 -1.5 -21.5 -3.5 q-1 -11 -1 -23 q0 -12 0 -25 q-1 -55 -11.5 -95.5 q-10.5 -40.5 -29 -71 q-18.5 -30.5 -46 -53 q-27.5 -22.5 -62.5 -40.5 q-31 -16 -52 -14 q-21 2 -26 14 q-6 14 -0.5 29 q5.5 15 41.5 27 q39 13 66 28.5 q27 15.5 44 36 q17 20.5 25 47.5 q8 27 10 63 q1 19 1.5 36.5 q0.5 17.5 1.5 34.5 q-48 -8 -74.5 -13.5 q-26.5 -5.5 -41.5 -11.5 q-14 -6 -26.5 -7.5 q-12.5 -1.5 -20.5 1 q-8 2.5 -9.5 9 q-1.5 6.5 6.5 17.5 q18 24 42 39 q24 15 38 10 q7 -2 31.5 -2.5 q24.5 -0.5 55.5 1.5 q0 38 0 73 q0 35 -2 67 q-40 -3 -75 -6 q-35 -3 -52 -5 q-32 -5 -47 5 q-15 10 -1 25 q21 22 43 28.5 q22 6.5 49 1.5 q27 -6 82 -6 q-1 11 -1.5 20.5 q-0.5 9.5 -0.5 20.5 q-2 46 9.5 73.5 q11.5 27.5 30.5 13.5 q20 -14 25.5 -40 q5.5 -26 -4.5 -60 ZM948 557 q-25 -36 -51.5 -43 q-26.5 -7 -55.5 8 q-29 14 -54.5 22 q-25.5 8 -53.5 12 q-7 -70 -8 -141.5 q-1 -71.5 6 -140.5 q8 -75 -14.5 -129 q-22.5 -54 -77.5 -75 q-45 -17 -86 -13 q-41 4 -75 27 q-13 9 -15 18 q-2 9 3 15 q5 6 16.5 9 q11.5 3 25.5 0 q89 -22 127.5 -1 q38.5 21 42.5 82 q2 33 2.5 77.5 q0.5 44.5 0 92.5 q-0.5 48 -2 95.5 q-1.5 47.5 -4.5 87.5 q-32 0 -58.5 -2.5 q-26.5 -2.5 -50 -7.5 q-23.5 -5 -46 -13 q-22.5 -8 -47.5 -19 q-33 -15 -45 -4.5 q-12 10.5 -4 30.5 q8 14 15.5 22.5 q7.5 8.5 17.5 13.5 q10 5 22.5 7.5 q12.5 2.5 30.5 3.5 q43 3 86.5 4 q43.5 1 90 0.5 q46.5 -0.5 97.5 -3.5 q51 -3 108 -8 q25 -2 39 -3.5 q14 -1.5 19.5 -4.5 q5.5 -3 4.5 -7.5 q-1 -4.5 -6 -11.5 Z" /><glyph glyph-name=".notdef" unicode="&#x5e26;" d="M529 56 q-1 -15 -5.5 -25 q-4.5 -10 -11.5 -14 q-7 -4 -15 -1 q-8 3 -16 16 q-6 10 -6.5 58.5 q-0.5 48.5 2.5 133.5 q1 17 1 36 q0 19 1 39 q-37 -2 -68 -5.5 q-31 -3.5 -50 -9.5 q-19 -6 -25.5 -14 q-6.5 -8 -9.5 -26 q-2 -11 -3 -20 q-1 -9 -2.5 -22.5 q-1.5 -13.5 -3 -34 q-1.5 -20.5 -4.5 -54.5 q-3 -31 -24 -30 q-14 1 -22.5 16.5 q-8.5 15.5 -3.5 38.5 q3 13 6.5 32 q3.5 19 6.5 39.5 q3 20.5 5 38 q2 17.5 2 27.5 q0 25 11.5 35.5 q11.5 10.5 34.5 12.5 q29 3 68.5 4.5 q39.5 1.5 81.5 2.5 q1 22 1 43 q0 21 0 41 q-30 0 -65 -1.5 q-35 -1.5 -66 -3 q-31 -1.5 -54 -2.5 q-23 -1 -30 -2 q-27 -5 -40 -15.5 q-13 -10.5 -17 -28.5 q-3 -12 -4.5 -21.5 q-1.5 -9.5 -3 -19 q-1.5 -9.5 -2.5 -19.5 q-1 -10 -2 -24 q-2 -27 -10.5 -30.5 q-8.5 -3.5 -28.5 10.5 q-9 7 -10 25.5 q-1 18.5 2 32.5 q1 6 4.5 18 q3.5 12 8 25.5 q4.5 13.5 9 25.5 q4.5 12 7.5 19 q9 18 24 26.5 q15 8.5 32 9.5 q51 2 108 3.5 q57 1.5 113 2.5 q56 1 108.5 0.5 q52.5 -0.5 96 -1 q43.5 -0.5 75 -2 q31.5 -1.5 45.5 -2.5 q30 -3 47 -14.5 q17 -11.5 21 -44.5 q4 -38 5 -62.5 q1 -24.5 -0.5 -39 q-1.5 -14.5 -6 -20.5 q-4.5 -6 -11.5 -7 q-16 -3 -22 3.5 q-6 6.5 -8 25.5 q-1 10 -1.5 23.5 q-0.5 13.5 -1 26 q-0.5 12.5 -1 22.5 q-0.5 10 -0.5 15 q-2 17 -11.5 25 q-9.5 8 -34.5 12 q-18 3 -46 4.5 q-28 1.5 -59.5 3 q-31.5 1.5 -64 2 q-32.5 0.5 -59.5 0.5 l0 -84 q51 0 95.5 -2 q44.5 -2 69.5 -7 q25 -5 32.5 -13.5 q7.5 -8.5 6.5 -34.5 q-1 -28 -1.5 -45.5 q-0.5 -17.5 -0.5 -30 q0 -12.5 0.5 -24 q0.5 -11.5 2.5 -27.5 q2 -19 -4 -32 q-6 -13 -17 -13 q-11 0 -21 12 q-10 12 -8 36 q1 12 1.5 29 q0.5 17 1.5 33.5 q1 16.5 1 29 q0 12.5 -1 15.5 q-5 17 -12 24 q-7 7 -23 10 q-25 4 -57 6.5 q-32 2.5 -66 2.5 q0 -14 0 -28 q0 -14 1 -27 q1 -47 2 -77 q1 -30 1 -50 q0 -20 0 -34 q0 -14 -1 -28 ZM526 678 q-2 -17 -2.5 -37.5 q-0.5 -20.5 -1.5 -40.5 l139 0 q1 22 1 40.5 q0 18.5 0 25.5 q-1 14 4.5 21.5 q5.5 7.5 14.5 8.5 q14 1 22.5 -10.5 q8.5 -11.5 6.5 -43.5 q-1 -9 -2 -20.5 q-1 -11.5 -3 -23.5 q39 -2 79 -4 q40 -2 98 -7 q26 -2 33 -9.5 q7 -7.5 -7 -24.5 q-15 -18 -35 -22.5 q-20 -4.5 -40 3.5 q-23 9 -54.5 15.5 q-31.5 6.5 -77.5 11.5 q-3 -23 -6 -41 q-3 -18 -4 -21 q-9 -26 -17 -32 q-8 -6 -16 -4 q-5 2 -6 12.5 q-1 10.5 4 48.5 q1 6 1.5 16.5 q0.5 10.5 1.5 23.5 q-29 2 -63 2.5 q-34 0.5 -74 -0.5 q-1 -22 -1 -40 q0 -18 1 -27 q1 -19 -4 -29.5 q-5 -10.5 -12 -13.5 q-7 -3 -14.5 2.5 q-7.5 5.5 -11.5 17.5 q-2 6 -2.5 25 q-0.5 19 -0.5 64 q-40 -1 -73.5 -1.5 q-33.5 -0.5 -61.5 -2.5 q-1 -25 -1 -42 q0 -17 0 -28 q0 -12 -4.5 -20 q-4.5 -8 -10.5 -10 q-6 -2 -12 2.5 q-6 4.5 -10 18.5 q-2 7 -4 24 q-2 17 -4 52 q-51 -4 -81.5 -9.5 q-30.5 -5.5 -52.5 -13.5 q-77 -29 -44 29 q6 11 13 17.5 q7 6.5 15 10 q8 3.5 19.5 4 q11.5 0.5 26.5 -0.5 q22 -2 37 -2.5 q15 -0.5 26 -0.5 q11 0 20.5 0 q9.5 0 20.5 1 q-1 26 -1.5 40 q-0.5 14 -2.5 25 q-2 12 8.5 20 q10.5 8 18.5 7 q27 -1 26 -43 q-1 -13 -1 -24 q0 -11 -1 -22 q13 0 29.5 0.5 q16.5 0.5 34.5 1 q18 0.5 36 1 q18 0.5 34 0.5 q0 9 -0.5 21 q-0.5 12 -1 24.5 q-0.5 12.5 -1 23.5 q-0.5 11 -1.5 17 q-2 12 5 22 q7 10 16 11 q14 1 24 -11.5 q10 -12.5 8 -28.5 Z" /><glyph glyph-name=".notdef" unicode="&#x5f85;" d="M929 431 q-17 -23 -37 -28.5 q-20 -5.5 -41 2.5 q-19 7 -55 11 q-36 4 -80.5 4.5 q-44.5 0.5 -93 -1 q-48.5 -1.5 -91.5 -5 q-43 -3.5 -76.5 -8 q-33.5 -4.5 -47.5 -9.5 q-32 -11 -41.5 -9 q-9.5 2 -9.5 16 q-1 23 14.5 34.5 q15.5 11.5 59.5 13.5 q41 2 82 3 q41 1 85 2 q-1 32 -1 55.5 q0 23.5 -1 41.5 q-37 -1 -65 -3.5 q-28 -2.5 -50 -7.5 q-20 -5 -35.5 -3.5 q-15.5 1.5 -22.5 7 q-7 5.5 -3.5 15 q3.5 9.5 20.5 21.5 q20 13 37.5 16 q17.5 3 34.5 -2 q22 -8 84 -7 q0 17 0.5 30.5 q0.5 13.5 1.5 27.5 q2 37 13 46 q11 9 23 4 q10 -5 15.5 -16.5 q5.5 -11.5 2.5 -43.5 q-2 -11 -2.5 -20 q-0.5 -9 -1.5 -25 q13 1 27 1.5 q14 0.5 29 2.5 q36 3 58.5 4.5 q22.5 1.5 35 1 q12.5 -0.5 18 -2 q5.5 -1.5 7.5 -4.5 q4 -5 3.5 -13 q-0.5 -8 -8.5 -14.5 q-8 -6.5 -23.5 -11.5 q-15.5 -5 -41.5 -4 q-31 1 -57 1.5 q-26 0.5 -49 0.5 q-1 -17 -1.5 -41 q-0.5 -24 -2.5 -56 q61 1 127 0.5 q66 -0.5 142 -1.5 q25 -1 27 -5.5 q2 -4.5 -9 -20.5 ZM749 332 q23 1 47 3 q24 2 51 5 q38 4 43.5 -7.5 q5.5 -11.5 -11.5 -25.5 q-15 -14 -29 -17 q-14 -3 -45 0 q-10 1 -24.5 1.5 q-14.5 0.5 -32.5 0.5 q-1 -30 -2.5 -57.5 q-1.5 -27.5 -4.5 -57.5 q-6 -58 -24.5 -87.5 q-18.5 -29.5 -56.5 -45.5 q-35 -15 -65 -19.5 q-30 -4.5 -52.5 -2 q-22.5 2.5 -37 11 q-14.5 8.5 -18.5 21.5 q-8 23 -1 33 q7 10 31 -1 q26 -11 63.5 -11 q37.5 0 65.5 18 q22 14 34.5 36.5 q12.5 22.5 14.5 60.5 q2 33 2.5 57.5 q0.5 24.5 0.5 44.5 q-30 0 -62 -1.5 q-32 -1.5 -61.5 -3 q-29.5 -1.5 -55 -3.5 q-25.5 -2 -42.5 -5 q-26 -5 -41 -3.5 q-15 1.5 -21.5 7 q-6.5 5.5 -5 13 q1.5 7.5 8.5 15.5 q12 15 39 20 q27 5 82 2 q49 -3 86.5 -4 q37.5 -1 72.5 0 q0 11 0 21.5 q0 10.5 -1 20.5 q-3 38 23 38 q17 0 23 -9 q6 -9 6 -37 l0 -32 ZM278 56 q0 -37 -23 -37 q-25 0 -25 40 q0 55 0 95 q0 40 0.5 74 q0.5 34 1 66.5 q0.5 32.5 0.5 73.5 q-32 -27 -67 -45 q-26 -13 -44 -11 q-18 2 -26 16 q-17 30 14 38 q31 8 64.5 27.5 q33.5 19.5 63.5 44.5 q30 25 55 53.5 q25 28.5 40 55.5 q11 19 20 16.5 q9 -2.5 4 -20.5 q-8 -33 -29.5 -67.5 q-21.5 -34.5 -50.5 -65.5 q0 -69 1 -118 q1 -49 1.5 -88.5 q0.5 -39.5 0.5 -74 q0 -34.5 -1 -73.5 ZM329 676 q-16 -62 -51 -100.5 q-35 -38.5 -95 -68.5 q-26 -13 -44 -11 q-18 2 -26 16 q-8 15 -4.5 22 q3.5 7 18.5 11 q63 17 105.5 49 q42.5 32 72.5 86 q11 19 20 16.5 q9 -2.5 4 -20.5 ZM477 226 q28 5 40.5 1.5 q12.5 -3.5 28.5 -15.5 q14 -11 30.5 -24 q16.5 -13 31.5 -24 q17 -13 10.5 -22 q-6.5 -9 -26.5 -1 q-25 10 -55.5 19.5 q-30.5 9.5 -59.5 17.5 q-31 11 -29.5 27.5 q1.5 16.5 29.5 20.5 Z" /><glyph glyph-name=".notdef" unicode="&#x5355;" d="M531 41 q-2 -25 -9 -33 q-7 -8 -17 -9 q-12 -1 -21 11 q-9 12 -8 44 q1 38 1.5 71 q0.5 33 1.5 65 q-58 -1 -138 -7 q-80 -6 -168 -17 q-35 -5 -47.5 -3.5 q-12.5 1.5 -16.5 9.5 q-7 16 13 34 q7 7 15 11.5 q8 4.5 20 6.5 q12 2 29 3 q17 1 42 0 q18 -1 38 -1 q20 0 48.5 0 q28.5 0 68.5 0.5 q40 0.5 97 1.5 q1 21 1 40 q0 19 0 36 q-51 -1 -93.5 -3.5 q-42.5 -2.5 -57.5 -7.5 q-81 -25 -85 47 q-1 20 -2.5 45.5 q-1.5 25.5 -2.5 49.5 q-1 24 -2.5 43.5 q-1.5 19.5 -2.5 27.5 q-5 40 11.5 53.5 q16.5 13.5 56.5 10.5 q21 -2 61 -2.5 q40 -0.5 92 0 q52 0.5 112.5 2 q60.5 1.5 123.5 4.5 q47 3 66 -13 q15 -11 22.5 -25 q7.5 -14 0.5 -43 q-4 -17 -7.5 -37.5 q-3.5 -20.5 -7 -42 q-3.5 -21.5 -7 -42.5 q-3.5 -21 -6.5 -37 q-5 -28 -22.5 -36.5 q-17.5 -8.5 -47.5 -1.5 q-19 4 -61.5 6 q-42.5 2 -92.5 2 q1 -19 1 -37.5 q0 -18.5 1 -37.5 q27 0 71 -1 q44 -1 93.5 -2 q49.5 -1 99 -2.5 q49.5 -1.5 88.5 -2.5 q29 -1 35 -4.5 q6 -3.5 1 -13.5 q-11 -24 -29.5 -38 q-18.5 -14 -34.5 -16 q-14 -2 -34 2 q-20 4 -58 15 q-17 5 -37 9 q-20 4 -46.5 7 q-26.5 3 -62.5 4.5 q-36 1.5 -85 2.5 q1 -59 0.5 -97.5 q-0.5 -38.5 -1.5 -50.5 ZM482 416 q-50 -1 -98.5 -1.5 q-48.5 -0.5 -94.5 -2.5 q1 -11 1 -21.5 q0 -10.5 0 -17.5 q0 -27 6 -35 q6 -8 34 -6 q42 2 80 3 q38 1 72 2 l0 79 ZM482 452 q-1 23 -1.5 42 q-0.5 19 -1.5 35 q-29 0 -56 0 q-27 0 -50 -0.5 q-23 -0.5 -40 -1 q-17 -0.5 -26 -1.5 q-14 -1 -19 -6.5 q-5 -5.5 -3 -23.5 q1 -8 1 -19 q0 -11 1 -25 l195 0 ZM723 505 q0 12 -5.5 16.5 q-5.5 4.5 -27.5 6.5 q-4 0 -19 0.5 q-15 0.5 -37 0.5 q-22 0 -49.5 0 q-27.5 0 -55.5 0 l0 -77 q53 0 101.5 0 q48.5 0 90.5 1 q1 13 1 26 q0 13 1 26 ZM712 368 q2 4 3 16 q1 12 3 29 q-44 2 -91.5 2.5 q-47.5 0.5 -97.5 0.5 l0 -79 q38 0 70.5 -0.5 q32.5 -0.5 55.5 -2.5 q16 -1 25.5 -0.5 q9.5 0.5 15.5 4.5 q6 4 9.5 11 q3.5 7 6.5 19 ZM704 655 q-14 -11 -29 -21.5 q-15 -10.5 -28 -19.5 q-13 -9 -23 -15.5 q-10 -6.5 -15 -9.5 q-17 -10 -27.5 -5.5 q-10.5 4.5 1.5 18.5 q31 33 49.5 59.5 q18.5 26.5 24.5 43.5 q5 14 22.5 18 q17.5 4 29.5 -10 q15 -18 15 -30.5 q0 -12.5 -20 -27.5 ZM420 609 q5 -16 -3.5 -22 q-8.5 -6 -21.5 5 q-15 13 -26.5 23 q-11.5 10 -21 18 q-9.5 8 -19 15 q-9.5 7 -21.5 15 q-10 8 -8.5 23 q1.5 15 12.5 23 q13 8 29.5 7.5 q16.5 -0.5 22.5 -11.5 q5 -6 13.5 -19 q8.5 -13 17.5 -27.5 q9 -14.5 16 -28.5 q7 -14 10 -21 Z" /><glyph glyph-name=".notdef" unicode="&#x5230;" d="M519 125 q1 -9 -9.5 -14.5 q-10.5 -5.5 -43.5 -9.5 q-77 -9 -129 -16.5 q-52 -7.5 -88.5 -14 q-36.5 -6.5 -61 -13.5 q-24.5 -7 -45.5 -15 q-31 -12 -42.5 -1.5 q-11.5 10.5 4.5 32.5 q15 21 35.5 30.5 q20.5 9.5 43.5 10.5 q20 0 57 2.5 q37 2.5 77 6.5 q-1 34 -1.5 61 q-0.5 27 -0.5 58 q-51 -4 -84.5 -7.5 q-33.5 -3.5 -55.5 -7.5 q-35 -7 -46 6 q-11 13 9 31 q28 25 64 20 q9 -2 18.5 -3 q9.5 -1 22 -1 q12.5 0 30 1 q17.5 1 42.5 2 q0 26 0 51 q0 25 -1 54 q-14 -1 -25.5 -2 q-11.5 -1 -19.5 -2 q-42 -5 -60 -0.5 q-18 4.5 -28 21.5 q-7 13 -2.5 32 q4.5 19 28.5 49 q35 45 50 72 q15 27 16 45 q-32 -2 -57.5 -4.5 q-25.5 -2.5 -40.5 -4.5 q-38 -6 -42.5 6 q-4.5 12 10.5 27 q21 19 42 25 q21 6 48 -1 q20 -5 39.5 -7.5 q19.5 -2.5 47 -3 q27.5 -0.5 67 1.5 q39.5 2 99.5 7 q39 3 55 -2.5 q16 -5.5 12 -17.5 q-4 -11 -15 -17 q-11 -6 -39 -4 q-35 2 -84.5 1 q-49.5 -1 -100.5 -3 q18 -23 16 -34 q-2 -11 -18 -26 q-12 -11 -28 -29 q-16 -18 -30 -37 q-20 -28 -11 -40 q9 -12 60 -10 q5 0 18.5 0 q13.5 0 29 0.5 q15.5 0.5 30 1.5 q14.5 1 22.5 2 q39 5 41 24.5 q2 19.5 -27 55.5 q-20 26 -10 35.5 q10 9.5 37 -5.5 q23 -11 37.5 -37 q14.5 -26 14.5 -58 q0 -49 -81 -55 q-23 -2 -51 -3 l0 -106 q20 2 44.5 3 q24.5 1 54.5 3 q33 2 42.5 -2 q9.5 -4 7.5 -16 q-2 -10 -12 -16.5 q-10 -6.5 -32 -7.5 q-29 -1 -55.5 -2 q-26.5 -1 -49.5 -2 q0 -23 0 -53 q0 -30 -1 -64 q36 4 64 7 q28 3 37 5 q23 4 38.5 -1 q15.5 -5 16.5 -14 ZM849 572 q-6 -64 -6.5 -131.5 q-0.5 -67.5 4.5 -133.5 q4 -63 3.5 -105 q-0.5 -42 -6.5 -70 q-6 -28 -17.5 -45 q-11.5 -17 -29.5 -29 q-22 -15 -49 -18.5 q-27 -3.5 -52.5 0.5 q-25.5 4 -46 13.5 q-20.5 9.5 -29.5 20.5 q-11 14 -6.5 18.5 q4.5 4.5 18.5 1.5 q35 -8 64 -6 q29 2 49 9 q20 7 28 13 q8 6 16 25 q4 9 8 19.5 q4 10.5 6.5 24 q2.5 13.5 3.5 30.5 q1 17 0 41 q-1 45 -2.5 92.5 q-1.5 47.5 -2.5 90 q-1 42.5 -2 76 q-1 33.5 -2 50.5 q-2 46 -0.5 75 q1.5 29 5 43.5 q3.5 14.5 9.5 17.5 q6 3 14 -2 q18 -13 23 -38.5 q5 -25.5 0 -82.5 ZM701 381 q2 -38 -6.5 -63.5 q-8.5 -25.5 -19.5 -24.5 q-7 0 -12.5 5 q-5.5 5 -8.5 16.5 q-3 11.5 -4 31 q-1 19.5 2 48.5 q1 21 1 36 q0 15 0 28.5 q0 13.5 -0.5 26.5 q-0.5 13 -0.5 30 q-1 33 6.5 42 q7.5 9 18.5 7 q12 -2 17 -19 q5 -17 3 -55 q-1 -12 -1.5 -22.5 q-0.5 -10.5 0.5 -22.5 q1 -12 2 -27 q1 -15 3 -37 Z" /><glyph glyph-name=".notdef" unicode="&#x7684;" d="M871 464 q-10 -23 -12 -48.5 q-2 -25.5 0 -68.5 q2 -75 -11.5 -123.5 q-13.5 -48.5 -48.5 -90.5 q-26 -32 -58.5 -50 q-32.5 -18 -80.5 -29 q-26 -6 -50.5 -7 q-24.5 -1 -43 2.5 q-18.5 3.5 -30.5 12 q-12 8.5 -13 20.5 q-3 19 6.5 26 q9.5 7 42.5 2 q51 -8 83.5 -2 q32.5 6 64.5 24 q40 23 60.5 53.5 q20.5 30.5 26.5 75.5 q8 54 8.5 92.5 q0.5 38.5 -4.5 69.5 q-5 35 -20 50.5 q-15 15.5 -55 14.5 q-37 -1 -73 -3 q-36 -2 -74 -5 q-17 -25 -36 -48 q-19 -23 -41 -43 q-10 -10 -19 -13.5 q-9 -3.5 -13.5 -0.5 q-4.5 3 -3.5 11.5 q1 8.5 11 22.5 q36 49 58.5 84 q22.5 35 35 62 q12.5 27 16.5 49.5 q4 22.5 4 47.5 q-1 42 18.5 48.5 q19.5 6.5 47.5 -13.5 q20 -15 22.5 -24.5 q2.5 -9.5 -8.5 -21.5 q-10 -12 -17.5 -25.5 q-7.5 -13.5 -18.5 -36.5 q-7 -15 -14 -29 q-7 -14 -15 -28 q35 -5 73 -6 q38 -1 94 4 q52 4 75.5 -10 q23.5 -14 12.5 -46 ZM719 257 q16 -15 10.5 -23.5 q-5.5 -8.5 -23.5 2.5 q-11 7 -31.5 20 q-20.5 13 -43 27 q-22.5 14 -42.5 27 q-20 13 -30 19 q-9 6 -13.5 13.5 q-4.5 7.5 -3.5 15 q1 7.5 8.5 13.5 q7.5 6 22.5 8 q18 2 27.5 -3.5 q9.5 -5.5 21.5 -19.5 q7 -8 19.5 -21.5 q12.5 -13.5 26.5 -27.5 q14 -14 27.5 -27.5 q13.5 -13.5 23.5 -22.5 ZM456 471 q0 -31 -1.5 -67.5 q-1.5 -36.5 -4 -76 q-2.5 -39.5 -6.5 -80 q-4 -40.5 -9 -78.5 q-9 -55 -56 -44 q-20 8 -41 11 q-21 3 -51 0 q-27 -2 -51.5 -6.5 q-24.5 -4.5 -44.5 -11.5 q-23 -10 -39.5 -4.5 q-16.5 5.5 -24.5 34.5 q-2 15 -4.5 53.5 q-2.5 38.5 -4 86 q-1.5 47.5 -2.5 95.5 q-1 48 -1 83 q0 28 8.5 41 q8.5 13 37.5 9 q10 -2 37.5 -2 q27.5 0 57.5 0 q8 44 10.5 82.5 q2.5 38.5 0.5 65.5 q-2 17 2.5 25.5 q4.5 8.5 12 11 q7.5 2.5 17.5 0 q10 -2.5 21 -8.5 q28 -11 31.5 -26.5 q3.5 -15.5 -7.5 -40.5 q-11 -18 -21 -46 q-10 -28 -23 -63 q26 0 48 1 q22 1 33 1 q38 0 56.5 -9.5 q18.5 -9.5 18.5 -35.5 ZM385 213 q2 13 3 42 q1 29 6 61 q-15 3 -39.5 3.5 q-24.5 0.5 -56.5 0.5 q-24 0 -40.5 -0.5 q-16.5 -0.5 -30 -1.5 q-13.5 -1 -26 -2.5 q-12.5 -1.5 -29.5 -2.5 q0 -25 1 -48.5 q1 -23.5 2 -40.5 q3 -17 7.5 -27.5 q4.5 -10.5 16 -15.5 q11.5 -5 31 -5.5 q19.5 -0.5 51.5 1.5 q37 1 57 2.5 q20 1.5 30 5.5 q10 4 12.5 10.5 q2.5 6.5 4.5 17.5 ZM398 426 q0 38 -26.5 48 q-26.5 10 -90.5 8 q-29 -2 -49.5 -4.5 q-20.5 -2.5 -33.5 -8.5 q-13 -6 -18.5 -17 q-5.5 -11 -5.5 -29 q-2 -15 -2 -32.5 q0 -17.5 0 -34.5 q17 0 31.5 0 q14.5 0 29 0 q14.5 0 30 0 q15.5 0 35.5 0 q18 0 31.5 0 q13.5 0 24.5 0 q11 0 21 0 q10 0 21 0 q2 23 2 40.5 q0 17.5 0 29.5 Z" /><glyph glyph-name=".notdef" unicode="&#x7b49;" d="M543 492 q34 0 67.5 0.5 q33.5 0.5 60.5 1.5 q27 1 44.5 2 q17.5 1 20.5 2 q18 5 21 -2.5 q3 -7.5 -10 -22.5 q-15 -19 -28.5 -23 q-13.5 -4 -40.5 1 q-18 3 -55.5 4.5 q-37.5 1.5 -82.5 1.5 q-1 -13 -2.5 -30.5 q-1.5 -17.5 -3.5 -43.5 q81 2 152 0 q71 -2 143 -7 q21 -2 34.5 -2.5 q13.5 -0.5 22.5 -0.5 q9 0 15.5 0 q6.5 0 13.5 0 q14 1 17.5 -6.5 q3.5 -7.5 -18.5 -30.5 q-13 -14 -23.5 -21 q-10.5 -7 -20.5 -9.5 q-10 -2.5 -21 -0.5 q-11 2 -25 7 q-51 19 -94.5 27.5 q-43.5 8.5 -75.5 10.5 q-5 -11 0 -21 q2 -8 2.5 -17 q0.5 -9 -2.5 -29 q-1 -1 -1 -6 q48 2 82.5 4 q34.5 2 45.5 4 q18 4 23.5 -2 q5.5 -6 -4.5 -26 q-5 -10 -9.5 -16 q-4.5 -6 -11.5 -8.5 q-7 -2.5 -19 -2 q-12 0.5 -31 3.5 q-16 2 -36.5 3 q-20.5 1 -43.5 2 q-2 -12 -2 -22 q0 -10 1 -18 q0 -29 -8.5 -61.5 q-8.5 -32.5 -24.5 -50.5 q-35 -38 -77.5 -54.5 q-42.5 -16.5 -93.5 -20.5 q-21 -2 -30.5 4.5 q-9.5 6.5 -11.5 17.5 q-2 12 6 18.5 q8 6.5 41 12.5 q33 6 54.5 11 q21.5 5 35.5 11 q14 6 22.5 12.5 q8.5 6.5 15.5 15.5 q13 16 18.5 28.5 q5.5 12.5 7.5 31.5 q3 31 3 65 q-38 0 -78 -1.5 q-40 -1.5 -76 -4 q-36 -2.5 -64 -6 q-28 -3.5 -42 -7.5 q-36 -11 -44.5 -7 q-8.5 4 -8.5 15 q0 13 6 22 q6 9 20 16 q10 4 15.5 7 q5.5 3 11 4 q5.5 1 12 0.5 q6.5 -0.5 17.5 -1.5 q13 -2 37.5 -3 q24.5 -1 55.5 -1 q31 0 66 0.5 q35 0.5 70 1.5 q-1 5 -1.5 10.5 q-0.5 5.5 -1.5 11.5 q-3 21 2 34 q2 5 3 9.5 q1 4.5 -2 10.5 q-135 -2 -239.5 -13.5 q-104.5 -11.5 -176.5 -34.5 q-20 -7 -32 -8.5 q-12 -1.5 -18.5 1 q-6.5 2.5 -8.5 8.5 q-2 6 -2 14 q0 54 50 49 q8 -1 14.5 -1.5 q6.5 -0.5 13 -0.5 q6.5 0 16 1 q9.5 1 23.5 2 q66 5 124.5 8.5 q58.5 3.5 115.5 5.5 q1 23 1.5 41.5 q0.5 18.5 0.5 32.5 q-45 -2 -83 -5 q-38 -3 -58 -8 q-21 -6 -35.5 -5 q-14.5 1 -21.5 6.5 q-7 5.5 -6.5 14 q0.5 8.5 9.5 17.5 q14 12 29 15.5 q15 3.5 43 1.5 q10 -1 43.5 -1.5 q33.5 -0.5 78.5 0.5 q0 5 -0.5 8.5 q-0.5 3.5 -0.5 7.5 q-4 33 10.5 48 q14.5 15 30.5 1 q11 -11 14.5 -20.5 q3.5 -9.5 3.5 -34.5 l0 -10 ZM854 572 q-30 -20 -70 14 q-24 22 -41.5 36 q-17.5 14 -31.5 25 q-20 13 -43 -1 q-23 -17 -45.5 -35 q-22.5 -18 -39.5 -26 q-38 -20 -58 0 q-8 8 -6 19 q2 11 19 13 q17 2 47.5 17.5 q30.5 15.5 55.5 40.5 q13 13 22.5 20 q9.5 7 17.5 8 q8 1 15.5 -3.5 q7.5 -4.5 17.5 -13.5 q5 -5 19 -14.5 q14 -9.5 33 -20 q19 -10.5 41.5 -20.5 q22.5 -10 43.5 -17 q43 -15 3 -42 ZM478 604 q-9 -7 -19 -6 q-10 1 -33 15 q-21 12 -35.5 19.5 q-14.5 7.5 -34.5 16.5 q-15 7 -26.5 4 q-11.5 -3 -33.5 -22 q-32 -29 -54.5 -45 q-22.5 -16 -39 -23 q-16.5 -7 -28 -6 q-11.5 1 -21.5 6 q-20 11 -19 22.5 q1 11.5 21 15.5 q20 4 42 14.5 q22 10.5 32 16.5 q19 12 31.5 20 q12.5 8 21.5 14.5 q9 6.5 15.5 12 q6.5 5.5 14.5 13.5 q25 24 48 6 q6 -5 18.5 -13 q12.5 -8 27.5 -17 q15 -9 30.5 -17.5 q15.5 -8.5 26.5 -14.5 q21 -11 23.5 -17 q2.5 -6 -8.5 -15 ZM401 198 q25 5 37 1.5 q12 -3.5 26 -14.5 l57 -45 q15 -12 9 -20.5 q-6 -8.5 -24 -0.5 q-23 9 -51 17.5 q-28 8.5 -54 16.5 q-29 11 -27.5 26 q1.5 15 27.5 19 ZM366 583 q-1 -16 -3.5 -27 q-2.5 -11 -5.5 -26 q-2 -17 -10 -15 q-8 2 -11 15 q-4 13 -9 24.5 q-5 11.5 -9 22.5 q-5 15 -2 26 q3 11 18 13 q14 2 24 -6 q10 -8 8 -27 ZM716 592 q-1 -14 -3.5 -26 q-2.5 -12 -5.5 -27 q-3 -17 -10 -15 q-7 2 -12 15 q-3 13 -8 25 q-5 12 -9 22 q-6 15 -2.5 26 q3.5 11 17.5 13 q14 2 24.5 -6 q10.5 -8 8.5 -27 Z" /><glyph glyph-name=".notdef" unicode="&#x5730;" d="M949 112 q-7 -13 -19.5 -25 q-12.5 -12 -29.5 -25 q-11 -8 -22 -11.5 q-11 -3.5 -23.5 -2 q-12.5 1.5 -29.5 7.5 q-17 6 -40 17 q-81 37 -137 53.5 q-56 16.5 -88 24.5 q-24 6 -38 4.5 q-14 -1.5 -21 -7.5 q-18 -16 -34.5 -3 q-16.5 13 -14.5 57 q0 11 0.5 32.5 q0.5 21.5 1 48 q0.5 26.5 1 54.5 q0.5 28 0.5 52 q-35 -11 -57 -18 q-38 -14 -49.5 -12.5 q-11.5 1.5 -10.5 12.5 q1 16 13 29.5 q12 13.5 47 21.5 q11 2 25.5 5.5 q14.5 3.5 32.5 7.5 l0 18 q0 46 2.5 74.5 q2.5 28.5 7.5 41.5 q5 13 12.5 12.5 q7.5 -0.5 18.5 -12.5 q13 -14 15 -31.5 q2 -17.5 -3 -30.5 q-2 -6 -3.5 -22.5 q-1.5 -16.5 -3.5 -38.5 q23 5 51 11 q28 6 58 13 q0 27 0.5 57 q0.5 30 1.5 64 q0 32 3 52.5 q3 20.5 7.5 32 q4.5 11.5 11 16 q6.5 4.5 13.5 3.5 q9 -1 14.5 -9.5 q5.5 -8.5 7.5 -21 q2 -12.5 1.5 -28.5 q-0.5 -16 -3.5 -33 q-5 -25 -7 -51 q-2 -26 -4 -72 q23 5 47 10.5 q24 5.5 50 11.5 q51 11 74 2.5 q23 -8.5 23 -43.5 q0 -11 -1 -19 q-1 -8 -4.5 -16 q-3.5 -8 -10.5 -18 q-7 -10 -19 -24 q-20 -24 -38 -46 q-18 -22 -29 -37 q-10 -13 -15.5 -15 q-5.5 -2 -10.5 1 q-8 5 -8 13.5 q0 8.5 10 22.5 q30 45 44.5 72 q14.5 27 17.5 38 q5 19 -2 25 q-7 6 -32 1 q-24 -5 -48.5 -10 q-24.5 -5 -48.5 -10 q-1 -19 -1 -42 q0 -23 -1 -50 q-1 -42 -2.5 -66.5 q-1.5 -24.5 -3 -37.5 q-1.5 -13 -4.5 -17.5 q-3 -4.5 -7 -5.5 q-9 -3 -15.5 -1.5 q-6.5 1.5 -10.5 10 q-4 8.5 -5 25.5 q-1 17 0 45 q1 29 2 61 q1 32 2 69 q-30 -7 -57.5 -13.5 q-27.5 -6.5 -52.5 -13.5 q-1 -21 -1.5 -41.5 q-0.5 -20.5 -0.5 -37.5 q-1 -39 0.5 -62 q1.5 -23 7 -36.5 q5.5 -13.5 15.5 -19.5 q10 -6 26 -11 q40 -12 81 -23.5 q41 -11.5 77.5 -20.5 q36.5 -9 66.5 -16 q30 -7 48 -10 q39 -7 68.5 -1.5 q29.5 5.5 48.5 17.5 q20 13 24.5 6 q4.5 -7 -12.5 -34 ZM263 622 q0 -10 -0.5 -27 q-0.5 -17 -1 -37.5 q-0.5 -20.5 -1 -42.5 q-0.5 -22 -0.5 -41 q23 0 49.5 -1 q26.5 -1 41.5 -3 q24 -2 23.5 -12 q-0.5 -10 -21.5 -15 q-17 -3 -37 -4.5 q-20 -1.5 -57 -1.5 q0 -19 0 -44.5 q0 -25.5 -0.5 -54 q-0.5 -28.5 -0.5 -59 q0 -30.5 0 -59.5 q10 2 22.5 6.5 q12.5 4.5 25.5 9 q13 4.5 25.5 9 q12.5 4.5 23.5 7.5 q25 5 28.5 -6 q3.5 -11 -18.5 -22 q-7 -3 -24.5 -11 q-17.5 -8 -37.5 -17 q-20 -9 -39 -16.5 q-19 -7.5 -28 -10.5 q-41 -13 -65 -22.5 q-24 -9.5 -43 -18.5 q-34 -16 -44 -12 q-10 4 -5 32 q2 9 6.5 16 q4.5 7 13 12 q8.5 5 22.5 9 q14 4 35 8 q11 2 25 5.5 q14 3.5 34 8.5 q0 27 0 58 q0 31 0.5 61.5 q0.5 30.5 1 59 q0.5 28.5 0.5 51.5 q-25 -2 -56.5 -7 q-31.5 -5 -54.5 -11 q-20 -5 -26 4 q-6 9 15 31 q14 14 24 18.5 q10 4.5 31 2.5 q13 -2 29 -2.5 q16 -0.5 38 0.5 q0 17 0.5 38 q0.5 21 0.5 41.5 q0 20.5 0 38 q0 17.5 0 28.5 q0 21 6.5 33 q6.5 12 14.5 12 q14 0 19.5 -11.5 q5.5 -11.5 4.5 -30.5 Z" /><glyph glyph-name=".notdef" unicode="&#x9012;" d="M836 322 q-43 -56 -70 -80 q-27 -24 -46 -30 q-23 -8 -26.5 -1 q-3.5 7 13.5 22 q18 15 29 28 q11 13 17.5 24.5 q6.5 11.5 9.5 23 q3 11.5 5 23.5 q2 13 -5.5 18.5 q-7.5 5.5 -33.5 9.5 q-20 2 -49.5 3.5 q-29.5 1.5 -62.5 0.5 q-1 -34 -2 -68.5 q-1 -34.5 -2 -71.5 q-2 -38 -7.5 -54.5 q-5.5 -16.5 -16.5 -16.5 q-11 0 -17 13.5 q-6 13.5 -4 55.5 q2 34 3 63.5 q1 29.5 2 58.5 q-42 -52 -83 -87 q-41 -35 -77 -52 q-23 -11 -37.5 -9 q-14.5 2 -31.5 18 q-14 12 -12.5 20.5 q1.5 8.5 21.5 10.5 q49 6 103 37 q54 31 95 80 q-45 -2 -81 -6 q-36 -4 -53 -9 q-29 -9 -42.5 0.5 q-13.5 9.5 -5.5 35.5 q5 18 7 37 q2 19 4 45 q1 20 6.5 24 q5.5 4 27.5 5 q42 1 83 1.5 q41 0.5 79 1.5 l0 72 q-42 -1 -82 -3.5 q-40 -2.5 -78 -7.5 q-27 -3 -33 6.5 q-6 9.5 8 26.5 q9 11 22 15.5 q13 4.5 34 1.5 q27 -4 68 -6.5 q41 -2.5 86.5 -3 q45.5 -0.5 91 1.5 q45.5 2 81.5 7 q20 2 30.5 -2 q10.5 -4 12.5 -20 q2 -26 -3.5 -51 q-5.5 -25 -17.5 -51 q-14 -27 -38 -20 q-10 2 -45 3 q-35 1 -93 1 q0 -18 -0.5 -36 q-0.5 -18 -1.5 -35 l95 0 q46 -1 73.5 -6 q27.5 -5 44.5 -15 q17 -11 18 -23 q1 -12 -13 -30 ZM908 54 q-22 -14 -37.5 -21 q-15.5 -7 -38.5 -13 q-25 -7 -47.5 -2 q-22.5 5 -46.5 15 q-35 14 -82 28 q-47 14 -96 28 q-36 11 -69 18.5 q-33 7.5 -66 12.5 q-33 5 -67 7.5 q-34 2.5 -72 2.5 q-19 0 -35.5 -0.5 q-16.5 -0.5 -33.5 -3.5 q-17 -3 -35 -8 q-18 -5 -39 -14 q-17 -8 -27.5 -3 q-10.5 5 -10.5 19 q0 22 28 35 q31 11 44 22 q13 11 29 28 q23 25 31.5 43 q8.5 18 7.5 29 q-2 14 -17 18.5 q-15 4.5 -32 2.5 q-34 -5 -42 -1 q-8 4 -8 15 q-1 8 6 17.5 q7 9.5 24 29.5 q20 25 34 38.5 q14 13.5 31 35.5 q8 9 3 16.5 q-5 7.5 -28 12.5 q-26 4 -40.5 1.5 q-14.5 -2.5 -30.5 -4.5 q-23 -3 -31.5 4 q-8.5 7 -0.5 20 q10 16 27.5 22.5 q17.5 6.5 50.5 0.5 q23 -7 40 -10 q17 -3 37 -6 q23 -4 34.5 -13 q11.5 -9 13.5 -17 q2 -11 -8 -23 q-10 -12 -35 -34 q-24 -21 -35.5 -34 q-11.5 -13 -14 -20.5 q-2.5 -7.5 1.5 -10.5 q4 -3 11 -4 q38 -5 50 -21.5 q12 -16.5 12 -36.5 q0 -15 -10.5 -35.5 q-10.5 -20.5 -37.5 -52.5 q-7 -8 -5 -11.5 q2 -3.5 19 -4.5 q14 -1 50 -4 q36 -3 82 -8.5 q46 -5.5 95 -12.5 q49 -7 90 -16 q63 -12 107.5 -20.5 q44.5 -8.5 61.5 -12.5 q26 -6 65.5 -10 q39.5 -4 87.5 -4 q23 -2 25.5 -9 q2.5 -7 -20.5 -21 ZM461 391 q15 1 45 2 q30 1 69 2 q0 17 0.5 35 q0.5 18 0.5 37 q-46 0 -77.5 -1 q-31.5 -1 -44.5 -3 q-19 -3 -23.5 -13 q-4.5 -10 -8.5 -32 q-3 -16 5 -22.5 q8 -6.5 34 -4.5 ZM730 569 q-23 1 -50.5 1.5 q-27.5 0.5 -56.5 -0.5 q-1 -19 -1 -37 q0 -18 -1 -35 q24 0 47 0.5 q23 0.5 44 1.5 q23 1 32 6.5 q9 5.5 14 19.5 q8 24 1 33 q-7 9 -29 10 ZM295 581 q10 -8 7 -16 q-3 -8 -20 -4 q-42 14 -75 25 q-33 11 -56 18 q-16 7 -20.5 14 q-4.5 7 9.5 21 q17 14 38 15 q21 1 38 -11 q23 -17 43.5 -32.5 q20.5 -15.5 35.5 -29.5 ZM728 706 q18 -14 16 -28.5 q-2 -14.5 -18 -25.5 q-20 -14 -32 -21.5 q-12 -7.5 -23 -12.5 q-14 -7 -19 -2 q-5 5 5 20 q8 13 15.5 28 q7.5 15 11.5 29 q5 16 17.5 20 q12.5 4 26.5 -7 ZM540 633 q4 -16 -3 -19.5 q-7 -3.5 -21 7.5 q-18 15 -26.5 22 q-8.5 7 -20.5 17 q-14 11 -12 23.5 q2 12.5 10 20.5 q9 9 26.5 8 q17.5 -1 25.5 -19 q5 -12 12 -30.5 q7 -18.5 9 -29.5 Z" /><glyph glyph-name=".notdef" unicode="&#x70b9;" d="M497 642 q-2 -9 -3 -37 q57 2 102 2.5 q45 0.5 67 0.5 q12 0 31.5 -1 q19.5 -1 39 -2 q19.5 -1 36 -2.5 q16.5 -1.5 21.5 -2.5 q32 -8 34 -17 q2 -9 -21 -30 q-14 -14 -30.5 -15 q-16.5 -1 -42.5 10 q-20 8 -42 12.5 q-22 4.5 -50 6.5 q-28 2 -63.5 0.5 q-35.5 -1.5 -83.5 -5.5 q-1 -23 -1 -48 q0 -25 -1 -49 q69 0 121.5 -2 q52.5 -2 74.5 -4 q34 -5 45.5 -19.5 q11.5 -14.5 7.5 -40.5 q-1 -9 -2.5 -22 q-1.5 -13 -3.5 -28 q-2 -15 -3.5 -29.5 q-1.5 -14.5 -2.5 -25.5 q-2 -17 -6.5 -28.5 q-4.5 -11.5 -14.5 -18 q-10 -6.5 -26.5 -8.5 q-16.5 -2 -41.5 0 q-30 3 -72 4 q-42 1 -85.5 0 q-43.5 -1 -83.5 -3.5 q-40 -2.5 -65 -6.5 q-33 -6 -44.5 4.5 q-11.5 10.5 -15.5 43.5 q-1 10 -3 30.5 q-2 20.5 -4.5 42 q-2.5 21.5 -4.5 40.5 q-2 19 -3 28 q-4 39 46 41 q34 1 69 1.5 q35 0.5 70 0.5 q6 62 4.5 106.5 q-1.5 44.5 -13.5 91.5 q-5 20 2.5 34.5 q7.5 14.5 27.5 12.5 q22 -2 30.5 -22 q8.5 -20 3.5 -46 ZM685 351 q5 40 -5.5 53.5 q-10.5 13.5 -27.5 17.5 q-11 2 -33.5 3.5 q-22.5 1.5 -51.5 2 q-29 0.5 -61 0 q-32 -0.5 -61.5 -1 q-29.5 -0.5 -54 -2 q-24.5 -1.5 -37.5 -3.5 q-24 -5 -32.5 -13 q-8.5 -8 -8.5 -25 q0 -4 0.5 -12 q0.5 -8 1 -17 q0.5 -9 1 -17.5 q0.5 -8.5 0.5 -12.5 q4 -39 36 -41 q16 -1 43 -1.5 q27 -0.5 58.5 -1 q31.5 -0.5 64.5 0 q33 0.5 61 1 q28 0.5 48 1 q20 0.5 26 1.5 q16 2 22.5 14 q6.5 12 10.5 53 ZM869 71 q8 -14 3.5 -22 q-4.5 -8 -21.5 2 q-6 4 -17.5 12.5 q-11.5 8.5 -25 18.5 q-13.5 10 -27.5 20 q-14 10 -24 18 q-14 11 -18 26 q-4 15 4 29 q7 13 28.5 10 q21.5 -3 41.5 -28 q18 -23 30 -42.5 q12 -19.5 26 -43.5 ZM256 175 q31 -31 -5 -62 q-23 -20 -40 -38.5 q-17 -18.5 -40 -39.5 q-17 -16 -26 -12.5 q-9 3.5 4 29.5 q6 12 13.5 27 q7.5 15 15 30 q7.5 15 14.5 27.5 q7 12.5 12 20.5 q27 42 52 18 ZM637 125 q-2 -22 -2.5 -39 q-0.5 -17 -2.5 -34 q-2 -26 -12.5 -25 q-10.5 1 -19.5 21 q-9 20 -14 40 q-5 20 -13 44 q-7 23 0 35 q7 12 31 10 q26 -2 30.5 -16 q4.5 -14 2.5 -36 ZM445 142 q-2 -17 -4.5 -41.5 q-2.5 -24.5 -7.5 -41.5 q-8 -26 -17 -26.5 q-9 -0.5 -15 22.5 q-5 20 -10 43 q-5 23 -9 43 q-3 17 5 29 q8 12 27 11 q34 -1 31 -39 Z" /><glyph glyph-name=".notdef" unicode="&#x7535;" d="M926 102 q-5 -9 -12.5 -20.5 q-7.5 -11.5 -16.5 -22 q-9 -10.5 -17.5 -20 q-8.5 -9.5 -15.5 -13.5 q-10 -7 -20.5 -10.5 q-10.5 -3.5 -24.5 -4 q-14 -0.5 -33.5 1.5 q-19.5 2 -48.5 7 q-30 5 -65.5 12.5 q-35.5 7.5 -67.5 14.5 q-32 7 -55.5 13.5 q-23.5 6.5 -30.5 9.5 q-24 12 -37.5 22.5 q-13.5 10.5 -19.5 24 q-6 13.5 -6.5 32.5 q-0.5 19 1.5 48 q0 4 0.5 16.5 q0.5 12.5 0.5 30.5 q-28 -1 -54.5 -3 q-26.5 -2 -47.5 -4.5 q-21 -2.5 -36 -5.5 q-15 -3 -21 -6 q-28 -14 -44 -7 q-16 7 -23 33 q-3 10 -6 32.5 q-3 22.5 -6 48.5 q-3 26 -5.5 51 q-2.5 25 -3.5 40 q0 5 -2 18 q-2 13 -4 27 q-2 14 -4 25 q-2 11 -2 13 q-11 28 2.5 44 q13.5 16 41.5 11 q4 -1 17 -1 q13 0 39 0 q26 0 66.5 1 q40.5 1 99.5 3 q0 12 0 25.5 q0 13.5 -0.5 25.5 q-0.5 12 -1 21.5 q-0.5 9.5 -0.5 13.5 q-6 36 1.5 50 q7.5 14 30.5 13 q20 -1 29 -16 q9 -15 -1 -46 q-2 -7 -5 -33 q-3 -26 -5 -53 q23 0 50 0 q27 0 54 -0.5 q27 -0.5 52 -2 q25 -1.5 45 -2.5 q33 -3 49.5 -10 q16.5 -7 30.5 -27 q7 -9 6.5 -19 q-0.5 -10 -11.5 -27 q-3 -5 -7.5 -21 q-4.5 -16 -9.5 -40 q-5 -24 -11 -55 q-6 -31 -13 -65 q-5 -27 -11.5 -42 q-6.5 -15 -15.5 -21.5 q-9 -6.5 -22.5 -5 q-13.5 1.5 -33.5 7.5 q-16 5 -56.5 8 q-40.5 3 -106.5 2 q-2 -36 -1 -60.5 q1 -24.5 5.5 -40 q4.5 -15.5 13.5 -24.5 q9 -9 23 -14 q21 -8 54.5 -13.5 q33.5 -5.5 70.5 -8.5 q37 -3 72 -3 q35 0 58 3 q13 2 28 5.5 q15 3.5 29.5 7.5 q14.5 4 25.5 8 q11 4 16 7 q21 14 29 9 q8 -5 1 -19 ZM728 483 q2 25 -6.5 33 q-8.5 8 -29.5 12 q-8 1 -25.5 2 q-17.5 1 -42 1.5 q-24.5 0.5 -53.5 1 q-29 0.5 -60 0.5 q-1 -18 -1.5 -49 q-0.5 -31 -1.5 -66 q48 0 98 0 q50 0 115 2 q2 17 3.5 33 q1.5 16 3.5 30 ZM461 418 q1 38 2 69 q1 31 1 46 q-49 -1 -91 -2.5 q-42 -1.5 -64 -3.5 q-20 -2 -31.5 -4.5 q-11.5 -2.5 -17 -7 q-5.5 -4.5 -7 -13.5 q-1.5 -9 -0.5 -24 q1 -14 1 -28 q0 -14 2 -28 q63 -2 111.5 -3 q48.5 -1 93.5 -1 ZM507 387 q-1 -34 -1.5 -63.5 q-0.5 -29.5 -2.5 -46.5 q28 0 54 0 q26 0 47 0.5 q21 0.5 36 0.5 q15 0 21 0 q12 0 19.5 1.5 q7.5 1.5 12.5 5.5 q5 4 8 11 q3 7 5 18 q2 9 4.5 26.5 q2.5 17.5 5.5 39.5 q-66 3 -115 4.5 q-49 1.5 -94 2.5 ZM458 276 q1 25 1.5 53.5 q0.5 28.5 1.5 57.5 q-44 0 -91.5 -1.5 q-47.5 -1.5 -110.5 -3.5 q3 -47 8 -73 q2 -12 4 -19 q2 -7 6.5 -10.5 q4.5 -3.5 12.5 -4 q8 -0.5 21 -0.5 q10 0 52.5 0 q42.5 0 94.5 1 Z" /><glyph glyph-name=".notdef" unicode="&#x5e97;" d="M788 222 q-6 -11 -9 -38.5 q-3 -27.5 -5 -65.5 q-2 -36 -23.5 -57 q-21.5 -21 -56.5 -19 q-18 1 -54.5 1.5 q-36.5 0.5 -76 0.5 q-39.5 0 -73.5 -0.5 q-34 -0.5 -47 -2.5 q-48 -7 -67.5 8 q-19.5 15 -21.5 49 q-1 18 -2 37 q-1 19 -1.5 37 q-0.5 18 -0.5 33.5 q0 15.5 0 26.5 q0 26 11 33.5 q11 7.5 44 9.5 q20 1 44.5 1.5 q24.5 0.5 50.5 0.5 q4 30 6 64.5 q2 34.5 1 67 q-1 32.5 -4 59.5 q-3 27 -8 41 q-9 26 1.5 43 q10.5 17 37.5 11 q10 -2 17 -9 q7 -7 10.5 -16 q3.5 -9 3.5 -19 q0 -10 -4 -19 q-2 -4 -4 -16 q-2 -12 -2 -48 q48 3 88.5 4.5 q40.5 1.5 77 1.5 q36.5 0 70.5 -1 q34 -1 70 -3 q28 -2 32 -5 q4 -3 -2 -17 q-14 -29 -32.5 -37 q-18.5 -8 -47.5 4 q-21 9 -44 14.5 q-23 5.5 -53 7.5 q-30 2 -69 0.5 q-39 -1.5 -91 -6.5 l0 -122 q42 0 79 -0.5 q37 -0.5 66 -2.5 q58 -3 79 -16.5 q21 -13.5 10 -35.5 ZM122 199 q32 15 55 37.5 q23 22.5 36.5 63 q13.5 40.5 17 102.5 q3.5 62 -3.5 157 q-4 46 10 61 q14 15 58 8 q23 -4 87.5 -5.5 q64.5 -1.5 179.5 -0.5 q-11 11 -22.5 20.5 q-11.5 9.5 -19.5 15.5 q-18 14 -17.5 27 q0.5 13 17.5 21 q16 7 32.5 2 q16.5 -5 22.5 -17 q5 -14 11.5 -33.5 q6.5 -19.5 8.5 -28.5 l0 -6 q80 0 182 3 q46 1 61 -4.5 q15 -5.5 15 -17.5 q0 -14 -16.5 -20.5 q-16.5 -6.5 -54.5 1.5 q-9 2 -36.5 3 q-27.5 1 -66 1.5 q-38.5 0.5 -83.5 0.5 q-45 0 -90 -1 q-45 -1 -86 -2.5 q-41 -1.5 -70 -3.5 q-21 -2 -34 -5.5 q-13 -3.5 -20.5 -11 q-7.5 -7.5 -10.5 -20 q-3 -12.5 -4 -31.5 q-2 -70 -7 -123.5 q-5 -53.5 -15.5 -95 q-10.5 -41.5 -28 -73 q-17.5 -31.5 -45.5 -58.5 q-33 -31 -58.5 -34.5 q-25.5 -3.5 -36.5 12.5 q-11 15 -2 28.5 q9 13.5 34 27.5 ZM724 199 q0 17 -11 24.5 q-11 7.5 -45 12.5 q-20 3 -49 4 q-29 1 -60 1 q-31 0 -60.5 -1 q-29.5 -1 -51.5 -3 q-23 -2 -33.5 -11.5 q-10.5 -9.5 -10.5 -29.5 q0 -17 1 -39 q1 -22 3 -41 q2 -19 10.5 -25 q8.5 -6 37.5 -6 q10 0 40 0.5 q30 0.5 64.5 1 q34.5 0.5 66.5 1.5 q32 1 48 2 q24 2 35 13 q11 11 13 26 q2 14 2 34.5 q0 20.5 0 35.5 Z" /><glyph glyph-name=".notdef" unicode="&#x5b9a;" d="M399 345 q2 -8 0.5 -20 q-1.5 -12 -6 -26.5 q-4.5 -14.5 -12 -29.5 q-7.5 -15 -17.5 -28 q33 -10 66 -19.5 q33 -9.5 65 -17.5 q-2 32 -1.5 59 q0.5 27 1.5 57 q1 29 1.5 61.5 q0.5 32.5 0.5 71.5 q-48 -2 -87.5 -5.5 q-39.5 -3.5 -50.5 -8.5 q-14 -6 -24.5 -5 q-10.5 1 -16.5 5.5 q-6 4.5 -7.5 11.5 q-1.5 7 1.5 14 q10 20 30 27.5 q20 7.5 33 3.5 q6 -2 28.5 -3.5 q22.5 -1.5 58 -1.5 q35.5 0 82.5 1 q47 1 101 4 q28 1 46 0 q18 -1 27.5 -4 q9.5 -3 12 -7.5 q2.5 -4.5 -0.5 -10.5 q-8 -20 -24.5 -24.5 q-16.5 -4.5 -51.5 0.5 q-18 2 -45.5 3.5 q-27.5 1.5 -57.5 0.5 q0 -33 0 -59.5 q0 -26.5 -1 -55.5 q51 11 74 23.5 q23 12.5 25 19.5 q11 27 31 3 q26 -33 21 -47 q-5 -14 -36 -20 q-12 -2 -28 -3 q-16 -1 -32.5 -2 q-16.5 -1 -31.5 -0.5 q-15 0.5 -24 1.5 q-1 -7 -1 -13.5 q0 -6.5 0 -13.5 q-3 -55 -17 -93 q55 -15 101.5 -26.5 q46.5 -11.5 77.5 -19.5 q77 -18 125 -27.5 q48 -9.5 89 -13.5 q23 -2 24 -10 q1 -8 -15 -21 q-24 -20 -43.5 -30 q-19.5 -10 -37 -12.5 q-17.5 -2.5 -33.5 1.5 q-16 4 -33 13 q-81 40 -197.5 83.5 q-116.5 43.5 -248.5 82.5 q-26 -28 -48 -49 q-22 -21 -41.5 -37 q-19.5 -16 -38.5 -28.5 q-19 -12.5 -40 -24.5 q-34 -20 -49.5 -19.5 q-15.5 0.5 -20.5 14.5 q-5 14 1 27 q6 13 28 24 q102 49 159.5 107.5 q57.5 58.5 77.5 112.5 q6 17 15.5 19.5 q9.5 2.5 15.5 -15.5 ZM858 493 q12 -40 -17 -42 q-17 -1 -24.5 5 q-7.5 6 -12.5 25 q-5 23 -10 41 q-5 18 -10 33 q-3 10 -6.5 16.5 q-3.5 6.5 -10.5 10 q-7 3.5 -18 5 q-11 1.5 -29 2.5 q-25 1 -62 1.5 q-37 0.5 -78.5 0 q-41.5 -0.5 -84.5 -1 q-43 -0.5 -80.5 -1.5 q-37.5 -1 -66 -2 q-28.5 -1 -41.5 -2 q-32 -3 -46 -14 q-14 -11 -15 -30 q-2 -30 -3 -46 q-1 -16 -3 -33 q-3 -23 -15 -33.5 q-12 -10.5 -25 -8.5 q-18 2 -24 19.5 q-6 17.5 2 43.5 q4 13 8.5 29.5 q4.5 16.5 9 32.5 q4.5 16 8 29.5 q3.5 13.5 5.5 21.5 q7 22 14 26 q7 4 21 2 q25 -4 77 -3 q28 1 79 1 q51 0 111 0 q-9 11 -17.5 21.5 q-8.5 10.5 -16.5 18.5 q-16 15 -14 27.5 q2 12.5 16 18.5 q17 8 32 1 q15 -7 20 -20 q4 -14 8 -31 q4 -17 7 -36 q35 0 68.5 0 q33.5 0 61 -0.5 q27.5 -0.5 48 -0.5 q20.5 0 29.5 0 q31 -2 48.5 -4 q17.5 -2 26.5 -5.5 q9 -3.5 11 -11 q2 -7.5 2 -19.5 q0 -13 4.5 -37.5 q4.5 -24.5 12.5 -49.5 Z" /><glyph glyph-name=".notdef" unicode="&#x4e1c;" d="M779 358 q2 -11 -8 -19.5 q-10 -8.5 -27 -8.5 q-34 0 -80 1 q-46 1 -108 2 q0 -48 0 -86 q0 -38 -0.5 -69.5 q-0.5 -31.5 -1.5 -58 q-1 -26.5 -2 -52.5 q-1 -20 -7.5 -28 q-6.5 -8 -15.5 -8 q-11 0 -20 17 q-9 17 -7 39 q1 33 2.5 69.5 q1.5 36.5 3 70.5 q1.5 34 2 62 q0.5 28 0.5 44 q-28 0 -61 -2 q-33 -2 -62 -4.5 q-29 -2.5 -51.5 -6 q-22.5 -3.5 -29.5 -7.5 q-21 -11 -31 -7.5 q-10 3.5 -18 21.5 q-9 20 -5.5 31.5 q3.5 11.5 26.5 30.5 q9 7 22.5 24 q13.5 17 29.5 40 q16 23 33 50.5 q17 27.5 32 56.5 q-24 -1 -47.5 -3 q-23.5 -2 -43.5 -4.5 q-20 -2.5 -35.5 -5.5 q-15.5 -3 -24.5 -6 q-15 -5 -26.5 -4 q-11.5 1 -18 6.5 q-6.5 5.5 -7.5 13.5 q-1 8 6 17 q12 14 28.5 20 q16.5 6 47.5 4 q9 -1 25.5 -2 q16.5 -1 35.5 -1.5 q19 -0.5 39.5 -0.5 q20.5 0 38.5 0 q6 13 10.5 23 q4.5 10 8 19.5 q3.5 9.5 6.5 19.5 q3 10 7 24 q4 13 7 20 q3 7 7 10 q4 3 9.5 2.5 q5.5 -0.5 13.5 -2.5 q18 -5 24.5 -21.5 q6.5 -16.5 -2.5 -33.5 q-17 -32 -33 -60 q63 2 117 2.5 q54 0.5 97 0 q43 -0.5 73 -2 q30 -1.5 45 -3.5 q20 -3 22 -11 q2 -8 -8 -16 q-17 -14 -37.5 -17.5 q-20.5 -3.5 -52.5 2.5 q-30 5 -95.5 7 q-65.5 2 -181.5 3 q-29 -48 -57.5 -89 q-28.5 -41 -57.5 -79 q-11 -14 -6.5 -21.5 q4.5 -7.5 24.5 -5.5 q10 0 29 0.5 q19 0.5 41 1.5 q22 1 45 1.5 q23 0.5 41 0.5 q-1 15 -1.5 32 q-0.5 17 -2.5 40 q-2 32 4 44.5 q6 12.5 20 12.5 q12 0 24 -11.5 q12 -11.5 10 -28.5 q-2 -22 -4 -45 q-2 -23 -3 -43 q21 0 47 0.5 q26 0.5 51 0.5 q25 0 44 0 q19 0 27 0 q51 0 54 -13 ZM885 107 q-35 -20 -57.5 -19 q-22.5 1 -44.5 24 q-27 29 -55.5 58 q-28.5 29 -71.5 72 q-9 9 -11 15.5 q-2 6.5 1 9.5 q3 3 10.5 2 q7.5 -1 17.5 -8 q25 -18 53.5 -37.5 q28.5 -19.5 57 -36.5 q28.5 -17 54 -30.5 q25.5 -13.5 45.5 -20.5 q33 -11 1 -29 ZM358 242 q-20 -32 -38 -54.5 q-18 -22.5 -37.5 -40 q-19.5 -17.5 -42 -32.5 q-22.5 -15 -50.5 -30 q-15 -8 -30 -5.5 q-15 2.5 -23 17.5 q-9 16 -2.5 26.5 q6.5 10.5 34.5 19.5 q15 5 37.5 16 q22.5 11 46.5 26 q24 15 46.5 32.5 q22.5 17.5 38.5 36.5 q11 12 19.5 7 q8.5 -5 0.5 -19 Z" /><glyph glyph-name=".notdef" unicode="&#x53d1;" d="M522 630 q-12 -38 -22.5 -69.5 q-10.5 -31.5 -21.5 -57.5 q72 2 125 3 q53 1 92 1 q39 0 67.5 -1 q28.5 -1 50.5 -2 q26 -2 30.5 -10 q4.5 -8 -3.5 -19 q-17 -23 -32 -26 q-15 -3 -36 2 q-26 7 -52 11.5 q-26 4.5 -60 6.5 q-34 2 -81 2.5 q-47 0.5 -115 -0.5 q-11 -23 -21.5 -43 q-10.5 -20 -21.5 -39 q25 -3 56 -4 q31 -1 62 -1 q31 0 59 2 q28 2 46 5 q23 4 42.5 -0.5 q19.5 -4.5 31.5 -13.5 q12 -9 15.5 -21.5 q3.5 -12.5 -4.5 -24.5 q-4 -6 -15 -20.5 q-11 -14.5 -26 -33.5 q-15 -19 -33.5 -41 q-18.5 -22 -37.5 -42 l-1 -1 q33 -17 62 -31 q29 -14 59.5 -27 q30.5 -13 66 -27 q35.5 -14 82.5 -32 q18 -7 19.5 -13.5 q1.5 -6.5 -10.5 -15.5 q-39 -28 -66 -29 q-27 -1 -59 24 q-63 48 -105 76.5 q-42 28.5 -75 48.5 q-54 -52 -115 -86 q-61 -34 -133 -45 q-60 -9 -69 21 q-5 17 2 24 q7 7 41 11 q37 4 65 9.5 q28 5.5 54.5 16 q26.5 10.5 53.5 27.5 q27 17 62 44 q-27 14 -50.5 23.5 q-23.5 9.5 -57.5 18.5 q-19 5 -23 14.5 q-4 9.5 10 28.5 q18 24 59 -3 q33 -23 52.5 -35.5 q19.5 -12.5 39.5 -23.5 q10 9 22 22.5 q12 13.5 22 28.5 q10 15 18 29 q8 14 11 23 q7 22 0.5 28.5 q-6.5 6.5 -34.5 6.5 q-63 0 -106 -2.5 q-43 -2.5 -63 -5.5 q-24 -4 -37 4 q-9 4 -13 10 q-39 -62 -69.5 -102 q-30.5 -40 -56.5 -66 q-26 -26 -50.5 -42 q-24.5 -16 -51.5 -28 q-24 -11 -44.5 -10 q-20.5 1 -27.5 15 q-7 14 -1 22 q6 8 36 22 q39 18 78.5 45.5 q39.5 27.5 76.5 65 q37 37.5 70.5 85.5 q33.5 48 59.5 107 q-22 -1 -43 -3 q-21 -2 -38.5 -4.5 q-17.5 -2.5 -30.5 -5 q-13 -2.5 -19 -4.5 q-38 -14 -52 -13.5 q-14 0.5 -21 6.5 q-12 11 -10.5 21.5 q1.5 10.5 18.5 29.5 q19 21 25.5 51.5 q6.5 30.5 0.5 81.5 q-2 19 6.5 27 q8.5 8 34.5 0 q7 -2 13.5 -7 q6.5 -5 10.5 -12.5 q4 -7.5 5.5 -16.5 q1.5 -9 -2.5 -19 q-5 -13 -11.5 -32.5 q-6.5 -19.5 -12.5 -41.5 q-5 -18 -0.5 -21.5 q4.5 -3.5 27.5 -4.5 q66 -1 112 0 q7 18 13 35.5 q6 17.5 11 37 q5 19.5 8.5 42 q3.5 22.5 6.5 52.5 q3 27 15 31 q12 4 29 -10 q11 -9 11 -24.5 q0 -15.5 -6 -35.5 ZM703 661 q2 -5 7.5 -16.5 q5.5 -11.5 12 -25.5 q6.5 -14 12.5 -28 q6 -14 9 -22 q9 -18 1 -23.5 q-8 -5.5 -26 10.5 q-14 12 -36.5 32 q-22.5 20 -38.5 33 q-14 11 -15.5 26.5 q-1.5 15.5 13.5 26.5 q16 12 35 7 q19 -5 26 -20 Z" /><glyph glyph-name=".notdef" unicode="&#x2f45;&#x65b9;" d="M505 494 q4 -12 6.5 -21.5 q2.5 -9.5 1.5 -19 q-1 -9.5 -5.5 -20 q-4.5 -10.5 -12.5 -25.5 q35 -20 81.5 -31.5 q46.5 -11.5 93.5 -11.5 q18 0 28.5 -4 q10.5 -4 16.5 -17 q11 -24 -8 -43 q-13 -13 -24 -31.5 q-11 -18.5 -25 -47.5 q-23 -49 -56 -86.5 q-33 -37.5 -80 -69.5 q-17 -11 -32 -9 q-15 2 -22 10 q-21 26 31 60 q25 16 43.5 31.5 q18.5 15.5 33.5 32 q15 16.5 28 36 q13 19.5 26 45.5 q13 26 2.5 44 q-10.5 18 -52.5 26 q-37 6 -61 9.5 q-24 3.5 -54 5.5 q-48 -77 -119.5 -141 q-71.5 -64 -170.5 -124 q-21 -13 -35 -17 q-14 -4 -22 -1 q-8 3 -10 11 q-2 8 0 19 q2 9 7.5 18 q5.5 9 23 22.5 q17.5 13.5 50 34.5 q32.5 21 88.5 54 q32 19 59 42 q27 23 50.5 51.5 q23.5 28.5 44 64 q20.5 35.5 39.5 79.5 q14 32 21.5 35.5 q7.5 3.5 13.5 -11.5 ZM530 671 q5 -30 9.5 -57.5 q4.5 -27.5 10.5 -55.5 q35 1 67.5 1.5 q32.5 0.5 59 1 q26.5 0.5 46 0.5 q19.5 0 28.5 0 q76 -1 109.5 0.5 q33.5 1.5 41.5 4.5 q17 5 20.5 0 q3.5 -5 -2.5 -17 q-23 -43 -49 -51 q-26 -8 -67 5 q-45 14 -114 17 q-69 3 -172 -2 q-74 -3 -128 -7 q-54 -4 -94 -7.5 q-40 -3.5 -68.5 -8 q-28.5 -4.5 -51.5 -8.5 q-20 -4 -32 -0.5 q-12 3.5 -16 11 q-4 7.5 0 17.5 q4 10 17 19 q29 20 46.5 24 q17.5 4 31.5 -1 q14 -5 44 -6 q30 -1 72 1 q38 2 81.5 3 q43.5 1 88.5 2 q-15 28 -29 54 q-14 26 -23 45 q-6 11 -2.5 25.5 q3.5 14.5 27.5 21.5 q22 5 33.5 -5 q11.5 -10 14.5 -27 Z" /><glyph glyph-name=".notdef" unicode="&#x8d39;" d="M855 406 q-2 -2 -4.5 -5 q-2.5 -3 -7.5 -10.5 q-5 -7.5 -14 -21 q-9 -13.5 -24 -36.5 q-12 -19 -23.5 -15.5 q-11.5 3.5 -6.5 19.5 q5 14 8 23.5 q3 9.5 7 22.5 q5 19 4.5 31.5 q-0.5 12.5 -8.5 20.5 q-8 8 -26 12 q-18 4 -48 6 q-27 2 -54.5 3 q-27.5 1 -54.5 2 l0 -77 q11 0 21.5 -0.5 q10.5 -0.5 23.5 -0.5 q46 -2 56.5 -15 q10.5 -13 2.5 -42 q-5 -17 -6.5 -48.5 q-1.5 -31.5 3.5 -82.5 q4 -52 -21 -54 q-12 -1 -20.5 8.5 q-8.5 9.5 -7.5 35.5 q0 14 0.5 24.5 q0.5 10.5 0.5 21 q0 10.5 0.5 24 q0.5 13.5 0.5 33.5 q0 20 -1.5 31.5 q-1.5 11.5 -7.5 17.5 q-6 6 -17.5 8 q-11.5 2 -31.5 3 q-17 1 -42 1 q-25 0 -54.5 -0.5 q-29.5 -0.5 -60.5 -2 q-31 -1.5 -60 -3.5 q-20 -2 -25 -9.5 q-5 -7.5 -5 -34.5 q0 -8 0 -22 q0 -14 -0.5 -30.5 q-0.5 -16.5 -0.5 -34 q0 -17.5 0 -30.5 q-1 -31 -5.5 -39.5 q-4.5 -8.5 -13.5 -8.5 q-13 0 -20 8 q-7 8 -6 42 q2 42 1.5 78 q-0.5 36 1.5 72 l0 6 q-11 -8 -22.5 -15 q-11.5 -7 -25.5 -14 q-36 -19 -68 -23.5 q-32 -4.5 -43 4.5 q-23 18 -19.5 29 q3.5 11 29.5 14 q72 8 124 38 q52 30 82 85 q-53 -3 -78 -9.5 q-25 -6.5 -40 -15.5 q-17 -10 -28 -2.5 q-11 7.5 -9 29.5 q2 20 3.5 37 q1.5 17 3.5 37 q3 26 11 32.5 q8 6.5 22 4.5 q19 -3 33 -3.5 q14 -0.5 30 0.5 q5 0 28 0.5 q23 0.5 57 1.5 q3 21 3 46 q-18 -1 -38.5 -1.5 q-20.5 -0.5 -40.5 -1 q-20 -0.5 -38 -0.5 q-18 0 -31 0 q-43 0 -41 17 q1 14 17 20 q16 6 30 4 q26 -3 59.5 -4 q33.5 -1 82.5 0 q0 8 0 16.5 q0 8.5 -1 16.5 q-2 17 4.5 26 q6.5 9 15.5 9 q14 0 19 -8.5 q5 -8.5 5 -27.5 l0 -31 q14 0 29 0.5 q15 0.5 32 1.5 q13 0 26 0.5 q13 0.5 27 0.5 q-1 10 -1.5 18 q-0.5 8 -0.5 13 q-2 18 3.5 26 q5.5 8 14.5 8 q11 0 17.5 -8 q6.5 -8 7.5 -28 q0 -4 0.5 -11 q0.5 -7 0.5 -17 q35 0 64.5 0 q29.5 0 47.5 -2 q42 -5 52.5 -18 q10.5 -13 -0.5 -43 q-5 -14 -23 -32 q-13 -13 -21.5 -15 q-8.5 -2 -26.5 0 q-20 2 -40 2.5 q-20 0.5 -52 -0.5 l0 -56 q48 0 81 -0.5 q33 -0.5 56 -2 q23 -1.5 38.5 -3.5 q15.5 -2 28.5 -6 q22 -6 34.5 -15.5 q12.5 -9.5 17.5 -19.5 q5 -10 4 -19.5 q-1 -9.5 -7 -15.5 ZM533 267 q-5 -7 -10 -29.5 q-5 -22.5 -10 -45.5 q-9 -45 -29.5 -76.5 q-20.5 -31.5 -51.5 -52.5 q-31 -21 -72.5 -32.5 q-41.5 -11.5 -92.5 -16.5 q-29 -3 -39.5 4.5 q-10.5 7.5 -14.5 26.5 q-5 24 28 24 q26 0 47 1 q21 1 39.5 4.5 q18.5 3.5 35.5 9 q17 5.5 36 14.5 q45 20 62.5 62.5 q17.5 42.5 15.5 125.5 q-1 20 6.5 25 q7.5 5 27.5 -3 q40 -17 22 -41 ZM563 381 q0 20 0 39 q0 19 -1 38 q-37 1 -75 0.5 q-38 -0.5 -76 -1.5 q-20 -45 -54 -81 q5 1 11 1.5 q6 0.5 14 0.5 q69 2 109 2.5 q40 0.5 72 0.5 ZM756 30 q-14 -16 -33 -19 q-19 -3 -38 7 q-39 21 -63 45.5 q-24 24.5 -41 47.5 q-13 17 -6.5 23 q6.5 6 19.5 -2 q43 -29 78 -43.5 q35 -14.5 66 -20.5 q25 -5 27 -15 q2 -10 -9 -23 ZM562 488 q0 15 0 28.5 q0 13.5 -1 26.5 q-35 -2 -87 -3 q-11 -1 -20.5 -1 q-9.5 0 -18.5 -1 q-2 -14 -5 -27 q-3 -13 -8 -25 q32 1 59.5 1.5 q27.5 0.5 42.5 0.5 l38 0 ZM379 485 q9 26 15 52 q-42 -2 -62 -3 q-20 -1 -37 -2 q-24 -2 -29.5 -7 q-5.5 -5 -7.5 -24 q-2 -14 2 -17.5 q4 -3.5 19 -2.5 q17 1 43.5 2 q26.5 1 56.5 2 ZM561 569 q-1 14 -1 27 q0 13 -1 24 q-30 -1 -60 -2 q-30 -1 -55 -2 q-1 -13 -1.5 -25 q-0.5 -12 -2.5 -23 q30 0 61 0.5 q31 0.5 60 0.5 ZM601 620 q0 -11 0.5 -23.5 q0.5 -12.5 0.5 -26.5 q23 1 40 1 q17 0 23 0 q26 0 36 5 q10 5 14 19 q3 11 -3 17.5 q-6 6.5 -35 7.5 q-14 0 -34 0.5 q-20 0.5 -42 -0.5 Z" /><glyph glyph-name=".notdef" unicode="&#x4e30;" d="M750 556 q-2 -10 -10 -16 q-8 -6 -27 -4 q-9 0 -32.5 1.5 q-23.5 1.5 -51.5 2.5 q-28 1 -56.5 2.5 q-28.5 1.5 -47.5 1.5 l0 -104 q48 1 92 1.5 q44 0.5 70 1.5 q21 1 32.5 -7.5 q11.5 -8.5 9.5 -20.5 q-2 -9 -10 -15 q-8 -6 -27 -4 q-9 0 -29.5 1.5 q-20.5 1.5 -45 2.5 q-24.5 1 -49.5 2.5 q-25 1.5 -43 1.5 q0 -28 0 -55.5 q0 -27.5 1 -56.5 q36 0 69.5 -2 q33.5 -2 67 -5.5 q33.5 -3.5 69 -9.5 q35.5 -6 76.5 -13 q25 -5 52 -8 q27 -3 36 -3 q15 0 17.5 -11 q2.5 -11 -20.5 -30 q-31 -25 -59.5 -25 q-28.5 0 -63.5 20 q-18 10 -48 19 q-30 9 -64 16 q-34 7 -69 11 q-35 4 -63 6 q1 -43 2 -85 q1 -42 3 -82 q1 -47 -6.5 -62.5 q-7.5 -15.5 -20.5 -15.5 q-18 0 -25 17.5 q-7 17.5 -5 58.5 q1 19 1.5 64 q0.5 45 1.5 105 q-38 -2 -79.5 -7.5 q-41.5 -5.5 -82 -14.5 q-40.5 -9 -79 -20.5 q-38.5 -11.5 -70.5 -26.5 q-20 -9 -31 -9.5 q-11 -0.5 -15.5 5.5 q-4.5 6 -2.5 16.5 q2 10.5 8 23.5 q11 22 31.5 32 q20.5 10 64.5 15 q81 8 143 13 q62 5 113 7 q1 27 1 55 q0 28 0 57 q-38 -2 -80 -8 q-42 -6 -76 -15 q-39 -10 -47 -1.5 q-8 8.5 8 36.5 q7 13 18.5 19 q11.5 6 22.5 4 q19 -2 38 -3 q19 -1 54 1 q14 1 29.5 1.5 q15.5 0.5 32.5 0.5 l0 105 q-22 -1 -49 -3 q-27 -2 -53.5 -5 q-26.5 -3 -51 -7.5 q-24.5 -4.5 -41.5 -8.5 q-39 -11 -47 -1.5 q-8 9.5 8 38.5 q7 13 18.5 19.5 q11.5 6.5 22.5 4.5 q19 -2 38 -3 q19 -1 54 1 q20 1 46 1.5 q26 0.5 55 1.5 q-1 26 -1 45.5 q0 19.5 -1 30.5 q-2 36 12.5 46 q14.5 10 27.5 -4 q6 -7 9 -19.5 q3 -12.5 2 -41.5 q-1 -13 -1 -27 q0 -14 -1 -29 q28 0 55.5 0.5 q27.5 0.5 52 1 q24.5 0.5 44 1 q19.5 0.5 31.5 0.5 q21 1 32.5 -8 q11.5 -9 9.5 -21 Z" /><glyph glyph-name=".notdef" unicode="&#x670d;" d="M949 91 q-10 -11 -21 -16 q-11 -5 -28 -11 q-12 -4 -31 -1 q-19 3 -39 29 q-23 29 -40.5 49 q-17.5 20 -35.5 38 q-32 -48 -73.5 -74 q-41.5 -26 -89.5 -24 q-11 0 -17 3 l0 -13 q0 -51 -26 -51 q-8 0 -14.5 13.5 q-6.5 13.5 -5.5 44.5 q2 68 3.5 141.5 q1.5 73.5 3 143.5 q1.5 70 1.5 130.5 q0 60.5 -1 102.5 q-1 49 7 63 q8 14 34 9 q17 -3 34 -5 q17 -2 38.5 -3.5 q21.5 -1.5 49 -2 q27.5 -0.5 65.5 -0.5 q20 0 36 -6.5 q16 -6.5 23.5 -19.5 q7.5 -13 4 -32.5 q-3.5 -19.5 -22.5 -44.5 q-8 -10 -20 -23.5 q-12 -13.5 -26 -26.5 q-14 -13 -29 -24.5 q-15 -11.5 -29 -17.5 q-19 -8 -23.5 -0.5 q-4.5 7.5 9.5 24.5 q27 33 40.5 51 q13.5 18 19.5 32 q13 29 5 41 q-8 12 -27 11 q-12 0 -26 -0.5 q-14 -0.5 -28.5 -1.5 q-14.5 -1 -27.5 -2 q-13 -1 -22 -3 q-23 -5 -32 -26 q-9 -21 -10 -52 q-1 -43 -2 -85.5 q-1 -42.5 -1.5 -90.5 q-0.5 -48 -0.5 -104 q0 -56 0 -125 q2 1 14 1 q34 0 69.5 19.5 q35.5 19.5 66.5 54.5 q-21 17 -47.5 35 q-26.5 18 -46.5 29 q-17 8 -16 20 q1 12 13 20 q11 8 21 4 q10 -4 29 -24 q10 -11 26.5 -27 q16.5 -16 38.5 -34 q30 42 46 97 q4 15 -1 26.5 q-5 11.5 -23 12.5 q-36 1 -69 -2.5 q-33 -3.5 -48 -10.5 q-26 -9 -34 3 q-8 12 9 28 q15 14 28 18.5 q13 4.5 37 0.5 q12 -2 27.5 -2 q15.5 0 30.5 1 q15 1 28.5 2.5 q13.5 1.5 21.5 3.5 q15 4 26 -4 q11 -8 16 -24 q6 -21 3 -36 q-3 -15 -17 -36 q-3 -5 -9 -16.5 q-6 -11.5 -13 -25 q-7 -13.5 -13 -26 q-6 -12.5 -9 -19.5 q-2 -4 -4 -7 q-2 -3 -4 -7 q9 -7 18.5 -14 q9.5 -7 19.5 -14 q40 -28 72.5 -41.5 q32.5 -13.5 60.5 -18.5 q14 -3 17.5 -7.5 q3.5 -4.5 -10.5 -19.5 ZM449 605 q-3 -20 -5 -45 q-2 -25 -3.5 -59 q-1.5 -34 -1.5 -79.5 q0 -45.5 2 -108.5 q1 -38 2 -74 q1 -36 2 -65 q1 -29 1.5 -47.5 q0.5 -18.5 0.5 -22.5 q3 -21 1 -35 q-2 -14 -7 -22.5 q-5 -8.5 -12 -12 q-7 -3.5 -13 -3.5 q-28 0 -28 25 q0 10 0.5 36 q0.5 26 1 60 q0.5 34 1 72.5 q0.5 38.5 0.5 74.5 q-10 1 -26.5 1.5 q-16.5 0.5 -35 0 q-18.5 -0.5 -36.5 -1.5 q-18 -1 -31 -3 q-7 -57 -14.5 -96 q-7.5 -39 -18 -66.5 q-10.5 -27.5 -24.5 -47.5 q-14 -20 -34 -39 q-16 -14 -35 -12 q-19 2 -25 19 q-3 9 0 18 q3 9 19 25 q28 31 47 73.5 q19 42.5 30 98.5 q11 56 13.5 128.5 q2.5 72.5 -1.5 165.5 q-2 16 -3.5 26.5 q-1.5 10.5 -1.5 17.5 q0 7 1.5 12.5 q1.5 5.5 3.5 13.5 q8 36 47 28 q20 -4 51 -5.5 q31 -1.5 87 -1.5 q23 0 36.5 -13.5 q13.5 -13.5 8.5 -35.5 ZM269 497 q25 -2 42 -3 q17 -1 30.5 -1 q13.5 0 26 1 q12.5 1 27.5 3 q1 31 1 55 q0 24 1 35 q0 14 -7 22.5 q-7 8.5 -26 9.5 q-32 1 -51.5 -1 q-19.5 -2 -30.5 -7 q-11 -5 -14 -12 q-3 -7 -2 -16 q3 -44 3 -86 ZM393 455 q-61 11 -122 0 q-2 -32 -2.5 -61 q-0.5 -29 -2.5 -52 q26 0 43.5 0 q17.5 0 31 0 q13.5 0 25 0.5 q11.5 0.5 25.5 1.5 q0 20 0.5 49.5 q0.5 29.5 1.5 61.5 Z" /><glyph glyph-name=".notdef" unicode="&#x590d;" d="M909 64 q-13 -14 -28 -25.5 q-15 -11.5 -29 -17.5 q-17 -8 -38 -5 q-21 3 -39 14 q-51 32 -102.5 55 q-51.5 23 -99.5 39 q-16 -10 -32.5 -18.5 q-16.5 -8.5 -35.5 -16.5 q-66 -31 -118 -43.5 q-52 -12.5 -92 -10.5 q-14 0 -21.5 7 q-7.5 7 -7.5 15.5 q0 8.5 7.5 16 q7.5 7.5 24.5 9.5 q23 2 41 3.5 q18 1.5 35 6.5 q45 11 81.5 22.5 q36.5 11.5 66.5 24.5 q-34 10 -65.5 16 q-31.5 6 -39.5 4 q-17 -6 -26 2 q-9 8 5 23 q11 12 19.5 13 q8.5 1 23.5 -4 q4 -2 12 -4 q8 -2 22.5 -6 q14.5 -4 36.5 -9.5 q22 -5.5 54 -14.5 q59 33 76 63 q15 27 -4 27 q-54 2 -104.5 -1 q-50.5 -3 -79.5 -9 q-15 -3 -25 -5 q-10 -2 -19 -1 q-9 1 -18.5 5.5 q-9.5 4.5 -22.5 12.5 q-23 -36 -53.5 -66 q-30.5 -30 -62.5 -52 q-32 -22 -62 -35.5 q-30 -13.5 -51 -16.5 q-32 -5 -41 3 q-9 8 -7 22 q2 13 12 18.5 q10 5.5 38 13.5 q23 6 49 17.5 q26 11.5 51 26 q25 14.5 46.5 31.5 q21.5 17 34.5 34 q25 32 35.5 54.5 q10.5 22.5 11.5 35.5 q-23 -2 -33 -7 q-14 -7 -29.5 -3.5 q-15.5 3.5 -20.5 29.5 q-3 13 -5 31 q-2 18 -3.5 38 q-1.5 20 -2 40.5 q-0.5 20.5 -0.5 37.5 q0 17 3 27 q3 10 9 15.5 q6 5.5 16 7.5 q10 2 25 3 q9 0 36.5 0.5 q27.5 0.5 63.5 0.5 q36 0 76.5 0 q40.5 0 76.5 -0.5 q36 -0.5 63 -1 q27 -0.5 37 -0.5 q70 -3 53 -62 q-4 -14 -6 -24 q-2 -10 -4 -23.5 q-2 -13.5 -4 -33.5 q-2 -20 -5 -53 q-2 -23 -19.5 -33 q-17.5 -10 -40.5 1 q-9 4 -35.5 7.5 q-26.5 3.5 -60 5 q-33.5 1.5 -68.5 2 q-35 0.5 -60 -0.5 q-7 -1 -13 -1 q-6 0 -12 0 q-3 -7 -7 -23 q-2 -11 -5.5 -19 q-3.5 -8 -11.5 -23 q8 -3 15 1 q1 1 11.5 1.5 q10.5 0.5 23 1 q12.5 0.5 24 0 q11.5 -0.5 16.5 -0.5 q8 -1 26.5 -0.5 q18.5 0.5 41.5 2 q23 1.5 47 4 q24 2.5 42 5.5 q18 3 29 4.5 q11 1.5 18 1 q7 -0.5 12 -3 q5 -2.5 11 -7.5 q23 -18 1 -46 q-44 -56 -91 -91 q24 -6 52 -14 q28 -8 63 -17 q37 -10 62.5 -16 q25.5 -6 45 -9.5 q19.5 -3.5 34.5 -5 q15 -1.5 31 -2.5 q30 -1 13 -20 ZM355 665 q-2 -4 -2.5 -7 q-0.5 -3 -2.5 -6 l367 0 q39 0 58 -2 q19 -2 25 -11 q6 -9 2 -15.5 q-4 -6.5 -25 -10.5 q-6 -1 -28.5 -1.5 q-22.5 -0.5 -53.5 -0.5 q-31 0 -66 0 q-35 0 -66 0.5 q-31 0.5 -54.5 0.5 q-23.5 0 -29.5 1 q-10 0 -28 0 q-18 0 -39 -0.5 q-21 -0.5 -43 -1 q-22 -0.5 -40 -1.5 q-20 -31 -51.5 -61 q-31.5 -30 -77.5 -56 q-32 -18 -45.5 -20 q-13.5 -2 -24.5 9 q-11 11 -4.5 25 q6.5 14 22.5 20 q84 32 122.5 69.5 q38.5 37.5 46.5 85.5 q2 15 10.5 20.5 q8.5 5.5 15.5 5.5 q24 -3 12 -43 ZM364 521 q-23 -6 -30.5 -16 q-7.5 -10 -7.5 -41 q94 2 181.5 2 q87.5 0 167.5 0 q2 29 -5.5 40 q-7.5 11 -24.5 14 q-7 1 -29 2 q-22 1 -51.5 1.5 q-29.5 0.5 -62.5 1 q-33 0.5 -61.5 0 q-28.5 -0.5 -49.5 -1.5 q-21 -1 -27 -2 ZM636 376 q9 0 15 1.5 q6 1.5 10 6.5 q4 5 6.5 16 q2.5 11 4.5 29 q-40 1 -87 1.5 q-47 0.5 -94 0.5 q-47 0 -90.5 -1 q-43.5 -1 -74.5 -3 q0 -17 1.5 -26.5 q1.5 -9.5 5 -15 q3.5 -5.5 9.5 -7 q6 -1.5 15 -1.5 q6 0 27.5 -0.5 q21.5 -0.5 50.5 -0.5 q29 0 62 0 q33 0 62 0 q29 0 50 0 q21 0 27 0 Z" /><glyph glyph-name=".notdef" unicode="&#x66f4;" d="M921 98 q24 2 21.5 -10.5 q-2.5 -12.5 -50.5 -45.5 q-14 -10 -27 -14.5 q-13 -4.5 -27 -3.5 q-14 1 -31.5 8 q-17.5 7 -41.5 20 q-68 37 -142.5 66.5 q-74.5 29.5 -168.5 60.5 q-42 -54 -92 -83.5 q-50 -29.5 -123 -45.5 q-32 -7 -53.5 -9.5 q-21.5 -2.5 -36 0 q-14.5 2.5 -22.5 8.5 q-8 6 -14 17 q-10 18 -4.5 26.5 q5.5 8.5 39.5 4.5 q16 -2 41.5 0 q25.5 2 51.5 6.5 q26 4.5 48.5 11 q22.5 6.5 34.5 14.5 q55 35 85 65 q-63 20 -104.5 25.5 q-41.5 5.5 -59.5 3.5 q-42 -3 -44.5 12.5 q-2.5 15.5 32.5 30.5 q14 6 32.5 5 q18.5 -1 46.5 -10 q33 -11 63 -20 q30 -9 58 -18 q28 40 40 94 q-42 -1 -77 -4.5 q-35 -3.5 -59 -9.5 q-15 -4 -25 -4.5 q-10 -0.5 -16.5 5.5 q-6.5 6 -10 20 q-3.5 14 -4.5 40 q-2 42 -3 71.5 q-1 29.5 -3 46.5 q-4 40 6.5 53.5 q10.5 13.5 49.5 12.5 q7 0 23 -0.5 q16 -0.5 38 -1 q22 -0.5 48 -1 q26 -0.5 53 -0.5 q0 15 0 32 q0 17 -1 38 q-36 0 -71.5 -1 q-35.5 -1 -68 -2.5 q-32.5 -1.5 -60 -3.5 q-27.5 -2 -47.5 -5 q-27 -4 -42 -2 q-15 2 -20 8.5 q-5 6.5 -0.5 16 q4.5 9.5 17.5 19.5 q16 12 34.5 14 q18.5 2 32.5 -2 q14 -4 42.5 -5.5 q28.5 -1.5 54.5 -2.5 q15 0 52.5 -0.5 q37.5 -0.5 85.5 -1 q48 -0.5 100 -1 q52 -0.5 97 -1 q45 -0.5 76 -1 q31 -0.5 37 -0.5 q26 2 27.5 -4.5 q1.5 -6.5 -15.5 -26.5 q-12 -16 -31.5 -17.5 q-19.5 -1.5 -63.5 6.5 q-28 5 -76.5 8 q-48.5 3 -108.5 4 q0 -20 -0.5 -37 q-0.5 -17 -0.5 -33 q49 -2 88.5 -2.5 q39.5 -0.5 51.5 -0.5 q55 -2 69 -20.5 q14 -18.5 4 -44.5 q-3 -9 -5.5 -18 q-2.5 -9 -5.5 -21 q-3 -12 -6.5 -29 q-3.5 -17 -7.5 -43 q-6 -35 -22 -46 q-16 -11 -43 -8 q-28 3 -66.5 5 q-38.5 2 -80.5 2 q-7 -29 -17 -57.5 q-10 -28.5 -20 -42.5 q-6 -8 39 -21.5 q45 -13.5 105.5 -31.5 q60.5 -18 102 -30 q41.5 -12 67.5 -18.5 q26 -6.5 46 -10.5 q23 -5 45.5 -7 q22.5 -2 33.5 -1 ZM479 355 q2 19 3.5 35 q1.5 16 3.5 30 q-85 0 -163 -6 q1 -11 1 -22 q0 -11 1 -21 q1 -10 2.5 -15.5 q1.5 -5.5 6.5 -8 q5 -2.5 14 -3 q9 -0.5 26 -0.5 q18 0 45.5 0.5 q27.5 0.5 58.5 0.5 q0 7 1 10 ZM526 353 q-1 -1 -1 -7 q35 0 65.5 0.5 q30.5 0.5 45.5 1.5 q30 1 38 5.5 q8 4.5 11 20.5 q2 10 3.5 19.5 q1.5 9.5 3.5 20.5 q-79 4 -157 6 q-2 -16 -4.5 -33 q-2.5 -17 -4.5 -34 ZM489 452 q3 33 3 61 q-33 0 -64 -0.5 q-31 -0.5 -57 -1.5 q-30 -2 -39 -9.5 q-9 -7.5 -9 -32.5 l0 -22 q43 3 82 4 q39 1 84 1 ZM700 474 q2 21 -3 27.5 q-5 6.5 -31 8.5 q-15 2 -48.5 2.5 q-33.5 0.5 -75.5 0.5 q-1 -16 -1.5 -31 q-0.5 -15 -2.5 -30 q32 -1 71 -2 q39 -1 87 -3 q1 6 2 12.5 q1 6.5 2 14.5 Z" /><glyph glyph-name=".notdef" unicode="&#x606d;" d="M932 244 q29 -9 24.5 -20 q-4.5 -11 -58.5 -24 q-40 -10 -62.5 -3 q-22.5 7 -45.5 36 q-38 46 -69.5 79 q-31.5 33 -61.5 58 q-30 25 -61 45 q-31 20 -67 39 q-8 -1 -16.5 -1 q-8.5 0 -16.5 -1 q-78 -78 -147 -135 q-69 -57 -130 -97 q-31 -20 -53.5 -23.5 q-22.5 -3.5 -45.5 7.5 q-14 6 -13 19.5 q1 13.5 24 22.5 q49 21 98.5 48 q49.5 27 92 55 q42.5 28 74 54 q31.5 26 45.5 46 q-107 -8 -189 -27 q-26 -6 -41.5 -4 q-15.5 2 -21 8 q-5.5 6 -2 14 q3.5 8 16.5 14 q29 14 42 19.5 q13 5.5 22 3.5 q18 -4 36.5 -3.5 q18.5 0.5 50.5 3.5 q16 1 36 3 q-3 24 -6.5 46.5 q-3.5 22.5 -6.5 43.5 q-8 -1 -15 -1.5 q-7 -0.5 -14 -0.5 q-38 -3 -60 -2.5 q-22 0.5 -30.5 4 q-8.5 3.5 -6 9.5 q2.5 6 14.5 14 q14 10 33.5 14.5 q19.5 4.5 30.5 2.5 q8 -2 18 -2.5 q10 -0.5 24 -1.5 q-2 11 -3 19.5 q-1 8.5 -3 16.5 q-4 22 -1 35 q3 13 9.5 18 q6.5 5 15.5 2 q9 -3 17 -13 q6 -8 9.5 -14.5 q3.5 -6.5 5 -14.5 q1.5 -8 2 -20 q0.5 -12 0.5 -30 q32 0 77.5 0.5 q45.5 0.5 114.5 1.5 q3 17 5.5 31.5 q2.5 14.5 4.5 25.5 q8 38 22.5 38.5 q14.5 0.5 22.5 -18.5 q6 -15 5.5 -23.5 q-0.5 -8.5 -6.5 -30.5 q-2 -5 -2.5 -10 q-0.5 -5 -2.5 -12 q17 1 35 1 q18 0 38 1 q10 0 16.5 -2.5 q6.5 -2.5 13.5 -10.5 q8 -10 -3.5 -17.5 q-11.5 -7.5 -31.5 -6.5 q-20 1 -39 1.5 q-19 0.5 -36 0.5 q-4 -19 -8 -40.5 q-4 -21.5 -9 -45.5 q24 1 51 1 q27 0 57 1 q24 0 36 -1.5 q12 -1.5 26 -8.5 q7 -3 9.5 -8.5 q2.5 -5.5 -1 -10.5 q-3.5 -5 -14 -8.5 q-10.5 -3.5 -29.5 -2.5 q-45 2 -88 3.5 q-43 1.5 -88 0.5 q80 -60 135 -98.5 q55 -38.5 92.5 -62 q37.5 -23.5 61 -34.5 q23.5 -11 40.5 -16 ZM523 336 q-2 -11 -3 -32 q-1 -21 -1 -47 q0 -26 0 -54.5 q0 -28.5 0 -53.5 q0 -30 0 -48.5 q0 -18.5 -1 -30 q-1 -11.5 -3 -18.5 q-2 -7 -6 -15 q-5 -10 -8 -12.5 q-3 -2.5 -12 -0.5 q-5 1 -9 3.5 q-4 2.5 -7 10 q-3 7.5 -4 22 q-1 14.5 0 39.5 q2 78 2.5 133.5 q0.5 55.5 -0.5 100.5 q-1 39 8.5 49.5 q9.5 10.5 26.5 2.5 q10 -5 14.5 -18.5 q4.5 -13.5 2.5 -30.5 ZM604 489 q3 25 5.5 46.5 q2.5 21.5 5.5 40.5 q-58 1 -104 0 q-46 -1 -85 -3 q0 -20 0.5 -41 q0.5 -21 1.5 -50 q32 2 74 3.5 q42 1.5 102 3.5 ZM396 207 q-12 -38 -36.5 -70 q-24.5 -32 -51.5 -51 q-15 -11 -29.5 -11.5 q-14.5 -0.5 -20.5 10.5 q-8 14 -5.5 24 q2.5 10 25.5 29 q35 29 57.5 49.5 q22.5 20.5 43.5 43.5 q15 17 20 9.5 q5 -7.5 -3 -33.5 ZM795 120 q-2 -12 -9 -19.5 q-7 -7.5 -16 -9 q-9 -1.5 -19 3 q-10 4.5 -17 18.5 q-16 28 -27.5 53 q-11.5 25 -22.5 52 q-8 18 -3 21 q5 3 17 -5 q19 -13 37 -28 q18 -15 31.5 -30 q13.5 -15 21.5 -29.5 q8 -14.5 7 -26.5 ZM662 131 q6 -21 2.5 -29.5 q-3.5 -8.5 -16.5 -13.5 q-19 -6 -27.5 -1.5 q-8.5 4.5 -14.5 24.5 q-4 12 -8.5 26.5 q-4.5 14.5 -8 29 q-3.5 14.5 -6.5 27 q-3 12.5 -5 20.5 q-5 19 0 23.5 q5 4.5 15 -4.5 q23 -22 42 -48 q19 -26 27 -54 Z" /><glyph glyph-name=".notdef" unicode="&#x516c;" d="M422 622 q11 -15 11 -26.5 q0 -11.5 -12 -34.5 q-29 -57 -75 -98.5 q-46 -41.5 -102 -79.5 q-45 -31 -71.5 -29 q-26.5 2 -46.5 31 q-20 27 -13.5 39 q6.5 12 34.5 11 q44 -2 78 6.5 q34 8.5 73 40.5 q40 32 60 57.5 q20 25.5 19 52.5 q-2 41 13 48 q15 7 32 -18 ZM917 415 q25 3 18.5 -12 q-6.5 -15 -62.5 -44 q-38 -20 -67.5 -13 q-29.5 7 -66.5 42 q-38 37 -69 71 q-31 34 -49 59 q-10 12 -23.5 29 q-13.5 17 -23.5 24 q-14 16 -16 35 q-2 19 7 28 q11 11 24 10 q13 -1 17 -21 q3 -15 15.5 -35 q12.5 -20 33.5 -42.5 q21 -22.5 49.5 -46.5 q28.5 -24 63.5 -46 q32 -21 71 -32 q39 -11 78 -6 ZM671 100 q-23 -7 -61.5 -12 q-38.5 -5 -83.5 -8 q-45 -3 -91.5 -4 q-46.5 -1 -85.5 2 q-45 3 -61.5 14 q-16.5 11 -16.5 35 q0 10 3 20 q3 10 11 21.5 q8 11.5 23 26 q15 14.5 39 34.5 q27 22 45 39.5 q18 17.5 29 31 q11 13.5 15.5 24.5 q4.5 11 6.5 21 q6 45 44 28 q21 -9 21.5 -23.5 q0.5 -14.5 -22.5 -43.5 q-15 -19 -44 -51.5 q-29 -32.5 -67 -67.5 q-25 -23 -20.5 -39.5 q4.5 -16.5 39.5 -20.5 q57 -6 110.5 -3.5 q53.5 2.5 97.5 15.5 q30 9 35 27.5 q5 18.5 -22 45.5 q-19 19 -29 30.5 q-10 11.5 -14.5 18 q-4.5 6.5 -3.5 10.5 q1 4 5 8 q6 6 17.5 4 q11.5 -2 37.5 -22 q84 -66 91 -105.5 q7 -39.5 -48 -55.5 Z" /><glyph glyph-name=".notdef" unicode="&#x5b98;" d="M366 310 q-1 -20 -2 -40 q-1 -20 -2 -42 q55 0 106 0 q51 0 93 -0.5 q42 -0.5 73 -0.5 q31 0 46 0 q32 1 42.5 -10 q10.5 -11 3.5 -31 q-5 -16 -8.5 -37.5 q-3.5 -21.5 -5.5 -51.5 q-2 -33 -19.5 -48 q-17.5 -15 -55.5 -12 q-109 9 -182 5.5 q-73 -3.5 -100 -20.5 q-30 -19 -47 -6 q-17 13 -8 64 q6 30 10 78.5 q4 48.5 5.5 100.5 q1.5 52 1 100 q-0.5 48 -3.5 78 q-3 30 8 46 q11 16 34 7 q23 -9 99 -14 q76 -5 194 0 q20 0 31.5 -1.5 q11.5 -1.5 17 -6 q5.5 -4.5 6 -12 q0.5 -7.5 -1.5 -17.5 q-5 -26 -9 -47.5 q-4 -21.5 -9 -43.5 q-2 -9 -5 -15 q-3 -6 -9.5 -10 q-6.5 -4 -18.5 -5.5 q-12 -1.5 -32 -1.5 q-38 -1 -69.5 -1.5 q-31.5 -0.5 -61 -1.5 q-29.5 -1 -59 -1.5 q-29.5 -0.5 -62.5 -1.5 ZM857 469 q3 -17 -5 -27 q-8 -10 -16 -11 q-8 -1 -13.5 1 q-5.5 2 -10 12 q-4.5 10 -9 29 q-4.5 19 -10.5 52 q-2 11 -5.5 18.5 q-3.5 7.5 -11 12.5 q-7.5 5 -21.5 7.5 q-14 2.5 -36 4.5 q-11 1 -37.5 1.5 q-26.5 0.5 -58 0.5 q-31.5 0 -62 0 q-30.5 0 -48.5 0 q-20 -1 -50 -2 q-30 -1 -61 -2 q-31 -1 -58 -2 q-27 -1 -42 -2 q-29 -2 -43.5 -7.5 q-14.5 -5.5 -18.5 -20.5 q-5 -14 -10 -34 q-5 -20 -10 -39 q-5 -22 -9 -34 q-4 -12 -7.5 -17.5 q-3.5 -5.5 -7.5 -6.5 q-4 -1 -10 -1 q-14 2 -20.5 22.5 q-6.5 20.5 5.5 46.5 q3 7 7 20.5 q4 13.5 7.5 28.5 q3.5 15 6 28.5 q2.5 13.5 2.5 20.5 q2 21 15 27 q13 6 49 6 q2 0 16 0 q14 0 43.5 0.5 q29.5 0.5 76 1.5 q46.5 1 113.5 3 l5 0 q-14 17 -26 30.5 q-12 13.5 -21 21.5 q-36 34 0 55 q17 6 34 1 q17 -5 22 -19 q2 -8 5.5 -19 q3.5 -11 7 -22.5 q3.5 -11.5 6.5 -21.5 q3 -10 4 -15 q1 -3 1 -11 q31 0 67 0 q36 0 67.5 0 q31.5 0 54.5 -0.5 q23 -0.5 28 -1.5 q25 -4 39 -7 q14 -3 21.5 -8.5 q7.5 -5.5 11 -14.5 q3.5 -9 6.5 -26 q7 -27 11 -45 q4 -18 6 -35 ZM394 82 q61 1 115.5 1.5 q54.5 0.5 89.5 -0.5 q18 0 29 1.5 q11 1.5 17 7 q6 5.5 9 16.5 q3 11 5 30 q3 25 -4 38 q-7 13 -28 13 q-47 0 -110 -0.5 q-63 -0.5 -156 -2.5 q-1 -14 -1.5 -28.5 q-0.5 -14.5 -1.5 -30.5 q-2 -31 5 -38 q7 -7 31 -7 ZM369 398 q-1 -12 -1 -23.5 q0 -11.5 -1 -22.5 q75 -1 133.5 1 q58.5 2 110.5 4 q18 1 23 9.5 q5 8.5 6 32.5 q0 14 -1 22.5 q-1 8.5 -5.5 12.5 q-4.5 4 -14 5 q-9.5 1 -26.5 1 q-45 0 -91.5 -1 q-46.5 -1 -98.5 -3 q-18 -1 -25.5 -6.5 q-7.5 -5.5 -8.5 -31.5 Z" /><glyph glyph-name=".notdef" unicode="&#x8fc7;" d="M910 52 q-22 -14 -37.5 -21 q-15.5 -7 -38.5 -13 q-25 -7 -47.5 -2 q-22.5 5 -46.5 15 q-35 14 -82 28 q-47 14 -96 28 q-36 11 -69 18.5 q-33 7.5 -66 12.5 q-33 5 -67 7.5 q-34 2.5 -72 2.5 q-19 0 -35.5 -0.5 q-16.5 -0.5 -33.5 -3 q-17 -2.5 -35 -8 q-18 -5.5 -39 -14.5 q-17 -8 -27.5 -3 q-10.5 5 -10.5 19 q0 22 28 35 q31 11 44 22 q13 11 29 28 q23 25 31.5 43 q8.5 18 7.5 29 q-2 14 -17 18.5 q-15 4.5 -32 2.5 q-34 -5 -42 -1 q-8 4 -8 15 q-1 8 6 17.5 q7 9.5 24 29.5 q10 12 18.5 21 q8.5 9 15.5 17.5 q7 8.5 14.5 16.5 q7.5 8 16.5 19 q8 9 3 16.5 q-5 7.5 -28 12.5 q-26 4 -40.5 1.5 q-14.5 -2.5 -30.5 -4.5 q-23 -3 -31.5 4 q-8.5 7 -0.5 20 q10 16 27.5 22.5 q17.5 6.5 50.5 0.5 q23 -7 40 -10 q17 -3 37 -6 q23 -4 34.5 -13 q11.5 -9 13.5 -17 q2 -11 -8 -23 q-10 -12 -35 -34 q-24 -21 -35 -34 q-11 -13 -14 -20.5 q-3 -7.5 1 -10.5 q4 -3 11 -4 q38 -5 50 -21.5 q12 -16.5 12 -36.5 q0 -15 -10.5 -35.5 q-10.5 -20.5 -37.5 -52.5 q-7 -8 -5 -11.5 q2 -3.5 19 -4.5 q14 -1 50 -4 q36 -3 82 -8.5 q46 -5.5 95 -12.5 q49 -7 90 -16 q63 -12 107.5 -20.5 q44.5 -8.5 61.5 -12.5 q26 -6 65.5 -10 q39.5 -4 87.5 -4 q23 -2 25.5 -9 q2.5 -7 -20.5 -21 ZM718 647 q-3 -18 -5 -42 q-2 -24 -3 -53 q51 -1 95 -3 q44 -2 68 -4 q12 -2 14.5 -9 q2.5 -7 -3.5 -16 q-17 -23 -32 -30.5 q-15 -7.5 -35 0.5 q-61 23 -108 26 q0 -25 0.5 -53 q0.5 -28 1.5 -59 q2 -74 -5 -121 q-7 -47 -24 -72 q-17 -25 -44 -31.5 q-27 -6.5 -65 0.5 q-32 6 -55.5 18.5 q-23.5 12.5 -37.5 34.5 q-11 18 -4.5 23 q6.5 5 20.5 -2 q26 -13 50.5 -18.5 q24.5 -5.5 45 -3.5 q20.5 2 35.5 10.5 q15 8.5 22 24.5 q6 13 10 37.5 q4 24.5 6.5 57.5 q2.5 33 3 72 q0.5 39 -0.5 81 q-68 -2 -116.5 -3.5 q-48.5 -1.5 -80.5 -4 q-32 -2.5 -51 -6 q-19 -3.5 -29 -7.5 q-41 -19 -51.5 -9.5 q-10.5 9.5 15.5 49.5 q20 30 75 20 q8 -2 16 -2.5 q8 -0.5 19.5 -0.5 q11.5 0 29 0 q17.5 0 45.5 1 q23 1 56.5 1 q33.5 0 70.5 -1 q-2 26 -3 51 q-1 25 -3 51 q-2 26 5 38 q7 12 21 10 q15 -2 24.5 -18.5 q9.5 -16.5 6.5 -36.5 ZM297 579 q10 -8 7 -16 q-3 -8 -20 -4 q-42 14 -75 25 q-33 11 -56 18 q-16 7 -20.5 14 q-4.5 7 9.5 21 q17 14 38 15 q21 1 38 -11 q23 -17 43.5 -32.5 q20.5 -15.5 35.5 -29.5 ZM511 332 q6 -9 6.5 -15.5 q0.5 -6.5 -3 -10 q-3.5 -3.5 -9.5 -3.5 q-6 0 -13 6 q-9 7 -15 12.5 q-6 5.5 -11 9.5 q-5 4 -11 8 q-6 4 -13 9 q-21 14 -29 26.5 q-8 12.5 -8 26.5 q0 29 30 30 q17 2 25.5 -6.5 q8.5 -8.5 11.5 -22.5 q2 -7 4.5 -13 q2.5 -6 7 -13.5 q4.5 -7.5 11 -18 q6.5 -10.5 16.5 -25.5 Z" /><glyph glyph-name=".notdef" unicode="&#x542b;" d="M725 209 q-4 -29 -7.5 -54.5 q-3.5 -25.5 -5.5 -39.5 q-5 -38 -26.5 -51 q-21.5 -13 -74.5 -11 q-88 4 -146 3 q-58 -1 -81 -6 q-50 -9 -57 25 q-3 12 -5.5 30.5 q-2.5 18.5 -5 38 q-2.5 19.5 -3.5 38 q-1 18.5 -1 30.5 q1 29 20 41 q19 12 50 9 q22 -2 62.5 -3 q40.5 -1 88.5 -1 q4 19 7 34 q3 15 5 32 q2 23 -5 30 q-7 7 -31 6 q-20 -1 -35.5 -2.5 q-15.5 -1.5 -29 -3.5 q-13.5 -2 -26.5 -5 q-13 -3 -28 -7 q-15 -5 -27 -4.5 q-12 0.5 -19 5.5 q-7 5 -6 14.5 q1 9.5 12 21.5 q17 19 33.5 23.5 q16.5 4.5 39.5 -0.5 q30 -6 63.5 -7 q33.5 -1 89.5 7 q12 2 19.5 2.5 q7.5 0.5 12.5 -0.5 q5 -1 9.5 -3.5 q4.5 -2.5 10.5 -6.5 q15 -12 13 -20.5 q-2 -8.5 -17 -23.5 q-9 -9 -16 -17 q-7 -8 -12.5 -18 q-5.5 -10 -10 -23.5 q-4.5 -13.5 -8.5 -33.5 q23 0 45.5 0 q22.5 0 41.5 1 q41 1 53 -10.5 q12 -11.5 8 -39.5 ZM927 390 q26 -6 23 -17.5 q-3 -11.5 -37 -20.5 q-24 -6 -40.5 -8 q-16.5 -2 -29.5 1 q-13 3 -24 10.5 q-11 7.5 -23 19.5 q-66 62 -114 105 q-48 43 -83 72 q-35 29 -61.5 48 q-26.5 19 -49.5 33 q-42 -47 -81 -85.5 q-39 -38.5 -78 -72 q-39 -33.5 -79 -62.5 q-40 -29 -83 -55 q-27 -17 -41 -17 q-14 0 -28 17 q-11 12 -5 21.5 q6 9.5 26 18.5 q43 19 85 43.5 q42 24.5 80.5 52 q38.5 27.5 72.5 57 q34 29.5 61 58.5 q11 12 19 21 q8 9 13.5 17 q5.5 8 9.5 17.5 q4 9.5 8 23.5 q4 12 12.5 18 q8.5 6 16.5 4 q8 -2 12.5 -12.5 q4.5 -10.5 0.5 -29.5 q31 -26 60.5 -49.5 q29.5 -23.5 64.5 -50 q35 -26.5 78 -57.5 q43 -31 100 -71 q23 -17 55 -30.5 q32 -13.5 59 -19.5 ZM668 172 q2 28 -4.5 36.5 q-6.5 8.5 -27.5 9.5 l-223 0 q-29 -2 -39 -13.5 q-10 -11.5 -8 -46.5 q1 -37 7 -47.5 q6 -10.5 25 -11.5 q15 -1 44.5 -2 q29.5 -1 62.5 -1 q33 0 63.5 0.5 q30.5 0.5 47.5 1.5 q13 1 22 4 q9 3 15 11 q6 8 9.5 22 q3.5 14 5.5 37 ZM593 477 q19 -12 14 -23.5 q-5 -11.5 -29 -3.5 q-18 5 -48 15.5 q-30 10.5 -62 22.5 q-34 11 -37.5 25 q-3.5 14 16.5 25 q37 16 67 -6 q13 -9 34.5 -24 q21.5 -15 44.5 -31 Z" /><glyph glyph-name=".notdef" unicode="&#x53f7;" d="M638 248 q-80 4 -134.5 -0.5 q-54.5 -4.5 -100.5 -17.5 q-26 -8 -37 -7.5 q-11 0.5 -19 11.5 q-8 11 -6.5 22.5 q1.5 11.5 15.5 27.5 q14 15 20.5 38.5 q6.5 23.5 7.5 57.5 q-63 -5 -127 -15 q-64 -10 -110 -22 q-14 -4 -22.5 -1.5 q-8.5 2.5 -8.5 10 q0 7.5 8 19 q8 11.5 27 25.5 q20 14 30.5 17.5 q10.5 3.5 18.5 0.5 q6 -2 13 -3 q7 -1 23.5 -1 q16.5 0 46.5 2 q30 2 81 5 q112 8 243.5 5.5 q131.5 -2.5 280.5 -13.5 q13 -1 19 -7 q6 -6 -5 -16 q-28 -27 -48 -32 q-20 -5 -37 1 q-42 15 -127 23.5 q-85 8.5 -205 7.5 q-10 0 -19.5 -0.5 q-9.5 -0.5 -20.5 -0.5 q-10 -23 -18 -43.5 q-8 -20.5 -10 -31.5 q-4 -19 0 -23.5 q4 -4.5 29 -2.5 q26 2 57 3.5 q31 1.5 62 1.5 q31 0 59 -1 q28 -1 48 -2 q26 -2 37 -5 q11 -3 15 -12 q6 -14 7.5 -22.5 q1.5 -8.5 0.5 -29.5 q-4 -79 -31 -121 q-27 -42 -81 -58 q-68 -20 -136.5 -15.5 q-68.5 4.5 -149.5 34.5 q-11 4 -16 9 q-5 5 -4.5 9.5 q0.5 4.5 5.5 6.5 q5 2 13 1 q47 -9 85 -13 q38 -4 69.5 -4.5 q31.5 -0.5 58 3 q26.5 3.5 50.5 11.5 q45 14 64.5 36.5 q19.5 22.5 23.5 72.5 q3 36 -6.5 46.5 q-9.5 10.5 -38.5 12.5 ZM710 628 q-2 -16 -3 -37.5 q-1 -21.5 -3 -35.5 q-5 -37 -19 -51.5 q-14 -14.5 -33 -13.5 q-32 1 -72.5 1.5 q-40.5 0.5 -82 -0.5 q-41.5 -1 -80.5 -3 q-39 -2 -69 -6 q-28 -4 -40.5 2 q-12.5 6 -16.5 28 q-4 22 -6 54 q-2 32 -3 57 q-1 29 10.5 39.5 q11.5 10.5 35.5 10.5 q104 -1 180.5 -1 q76.5 0 126.5 2 q45 1 61.5 -10.5 q16.5 -11.5 13.5 -35.5 ZM659 610 q-1 17 -9.5 23.5 q-8.5 6.5 -27.5 7.5 q-22 1 -57 1 q-35 0 -73.5 -1 q-38.5 -1 -75.5 -3.5 q-37 -2.5 -61 -5.5 q-16 -2 -21 -8.5 q-5 -6.5 -5 -19.5 q-1 -16 -0.5 -30 q0.5 -14 1.5 -27 q1 -18 9 -22 q8 -4 37 -3 q20 1 53 1.5 q33 0.5 69 1 q36 0.5 70.5 1.5 q34.5 1 57.5 2 q17 1 23.5 8.5 q6.5 7.5 8.5 21.5 q2 11 2 25.5 q0 14.5 -1 26.5 Z" /><glyph glyph-name=".notdef" unicode="&#x540e;" d="M795 250 q-2 -49 -3.5 -88 q-1.5 -39 -5.5 -60 q-5 -28 -25 -42.5 q-20 -14.5 -75 -11.5 q-16 1 -34.5 1.5 q-18.5 0.5 -36.5 0.5 q-18 0 -33.5 0 q-15.5 0 -25.5 0 q-20 -1 -34.5 -1.5 q-14.5 -0.5 -30.5 -3.5 q-46 -8 -63 7 q-17 15 -21 57 q-1 13 -2 31 q-1 18 -1.5 36.5 q-0.5 18.5 -0.5 35.5 q0 17 0 29 q0 34 13.5 44 q13.5 10 47.5 12 q24 1 65.5 1.5 q41.5 0.5 84 0.5 q42.5 0 77.5 -0.5 q35 -0.5 46 -1.5 q39 -3 49 -14.5 q10 -11.5 9 -32.5 ZM707 633 q-2 -8 -11 -11.5 q-9 -3.5 -36 -8.5 q-28 -5 -58.5 -9 q-30.5 -4 -68 -8 q-37.5 -4 -83.5 -8.5 q-46 -4.5 -105 -10.5 q-25 -2 -32.5 -11.5 q-7.5 -9.5 -7.5 -33.5 q0 -22 0 -42 q0 -20 -1 -39 q73 4 145 6 q72 2 145.5 2 q73.5 0 150.5 -1.5 q77 -1.5 161 -4.5 q49 -1 23 -23 q-18 -15 -30 -24 q-12 -9 -21 -13.5 q-9 -4.5 -16.5 -6 q-7.5 -1.5 -16.5 -1.5 q-14 0 -27 3.5 q-13 3.5 -30 10.5 q-14 6 -40 10.5 q-26 4.5 -60 7.5 q-34 3 -73 4.5 q-39 1.5 -78 0.5 q-29 -1 -61.5 -2.5 q-32.5 -1.5 -64 -3 q-31.5 -1.5 -60 -4 q-28.5 -2.5 -49.5 -4.5 q-5 -64 -15 -108.5 q-10 -44.5 -25 -79.5 q-7 -17 -14 -30.5 q-7 -13.5 -17 -27 q-10 -13.5 -23.5 -29 q-13.5 -15.5 -34.5 -35.5 q-16 -15 -35 -22 q-19 -7 -45 -6 q-19 1 -29.5 7.5 q-10.5 6.5 -12.5 15 q-2 8.5 5 17.5 q7 9 23 15 q26 9 46 19.5 q20 10.5 36.5 25 q16.5 14.5 30 33 q13.5 18.5 25.5 44.5 q14 28 22 48.5 q8 20.5 12.5 42 q4.5 21.5 5.5 48 q1 26.5 1 67.5 q0 34 -2.5 60.5 q-2.5 26.5 -4.5 34.5 q-12 63 62 59 q9 0 28 1 q19 1 43.5 4 q24.5 3 53 7.5 q28.5 4.5 55.5 10.5 q56 14 96.5 31 q40.5 17 48.5 24 q14 12 24 14 q10 2 20 -11 q19 -24 23 -35.5 q4 -11.5 2 -19.5 ZM739 227 q-1 14 -10.5 22 q-9.5 8 -34.5 10 q-9 1 -32.5 1.5 q-23.5 0.5 -51 0.5 q-27.5 0 -54.5 -0.5 q-27 -0.5 -43 -1.5 q-30 -2 -43 -11.5 q-13 -9.5 -15 -23.5 q-2 -17 -1.5 -41.5 q0.5 -24.5 2.5 -44.5 q2 -20 9 -30 q7 -10 32 -12 q8 -1 32.5 -1.5 q24.5 -0.5 53 -0.5 q28.5 0 56 0 q27.5 0 42.5 1 q29 2 40 9.5 q11 7.5 15 29.5 q2 11 3 24.5 q1 13.5 1 26 q0 12.5 -0.5 24 q-0.5 11.5 -0.5 18.5 Z" /></font>
</defs>
</svg>
